<?xml version="1.0" encoding="iso-8859-1"?>
<!-- Generator: Adobe Illustrator 19.0.0, SVG Export Plug-In . SVG Version: 6.00 Build 0)  -->
<svg version="1.1" id="Layer_1" xmlns="http://www.w3.org/2000/svg" xmlns:xlink="http://www.w3.org/1999/xlink" x="0px" y="0px"
	 viewBox="0 0 276.045 276.045" style="enable-background:new 0 0 276.045 276.045;" xml:space="preserve">
<g>
	<g>
		<g>
			<g id="XMLID_13_">
				<g>
					<g>
						<path style="fill:#2D213F;" d="M190.882,236.906l-0.233-93.293L51.745,143.96l0.233,93.293
							c0.029,12.204,9.993,22.116,22.229,22.087l94.555-0.236C180.999,259.074,190.911,249.11,190.882,236.906z M232.213,170.345
							c-0.013-5.471-4.461-9.896-9.931-9.88l-14.923,0.039l0.175,70.374l14.923-0.039c5.471-0.013,9.896-4.493,9.88-9.931
							L232.213,170.345z M34.582,142.16c-10.1,0.026-10.106-15.609-0.039-15.635c58.041-0.146,116.082-0.291,174.123-0.434
							c10.067-0.026,10.074,15.609,0.039,15.635c-0.486,0-0.939,0.003-1.392,0.003l0.006,2.072l14.923-0.039
							c14.664-0.036,26.638,11.877,26.677,26.544l0.126,50.563c0.036,14.664-11.877,26.606-26.541,26.641l-16.444,0.042
							c-4.619,16.231-19.546,28.211-37.252,28.257l-94.555,0.236c-21.43,0.055-38.887-17.318-38.942-38.748l-0.236-95.138
							C34.906,142.16,34.744,142.16,34.582,142.16z"/>
					</g>
					<g>
						<path style="fill:#BF9177;" d="M190.649,143.614l0.233,93.293c0.029,12.204-9.883,22.168-22.119,22.197l-94.555,0.236
							c-12.236,0.029-22.2-9.883-22.229-22.087l-0.233-93.293L190.649,143.614z"/>
					</g>
					<g>
						<path style="fill:#CC9F7E;" d="M51.978,237.256c0.01,3.541,0.877,6.882,2.373,9.85c3.01,1.515,6.4,2.386,9.999,2.376
							l94.555-0.236c12.236-0.029,22.148-9.993,22.119-22.197l-0.181-72.734c-0.01-3.914-1.133-7.559-3.04-10.666l-126.056,0.314
							L51.978,237.256z"/>
					</g>
					<g>
						<path style="fill:#2D213F;" d="M97.638,62.628c-18.516,0.045-33.384-16.101-31.131-35.077
							c1.87-15.933,16.279-27.428,32.302-27.467l14.794-0.036l1.78-0.003l10.747-0.026l1.748-0.003L132.346,0
							c4.597-0.01,8.329,3.703,8.339,8.3c0.013,4.629-3.703,8.361-8.297,8.371l-4.467,0.01l-1.748,0.003l-10.747,0.026l-1.78,0.003
							l-15.473,0.039c-7.089,0.019-13.648,4.794-14.959,11.789c-1.725,9.294,5.383,17.435,14.382,17.412l46.129-0.117v-0.065
							l1.23-0.003c17.254-0.172,31.435,13.712,31.607,30.966c0.172,17.221-13.712,31.403-30.966,31.575l-18.807,0.21v0.065h-0.486
							c-5.924,0.049-10.996,3.687-13.217,8.805c-1.382,3.208-4.325,5.513-7.821,5.522c-5.989,0.016-9.986-6.092-7.701-11.634
							c4.632-11.246,15.651-19.235,28.567-19.397h0.55v-0.032l18.743-0.207c8.06-0.084,14.518-6.704,14.434-14.732
							c-0.084-8.06-6.672-14.551-14.732-14.467h-0.615c-0.032,0.032-0.032,0.065-0.065,0.065L97.638,62.628z"/>
					</g>
				</g>
			</g>
		</g>
		<g>
			<path style="fill:#D6AA83;" d="M68.675,143.908l1.916,72.673c0.185,7.041,7.183,12.68,15.629,12.68h24.052
				c8.449,0,15.444-5.639,15.629-12.68l1.923-72.822L68.675,143.908z"/>
		</g>
	</g>
</g>
<g>
</g>
<g>
</g>
<g>
</g>
<g>
</g>
<g>
</g>
<g>
</g>
<g>
</g>
<g>
</g>
<g>
</g>
<g>
</g>
<g>
</g>
<g>
</g>
<g>
</g>
<g>
</g>
<g>
</g>
</svg>
