<?xml version="1.0" encoding="iso-8859-1"?>
<!-- Generator: Adobe Illustrator 19.0.0, SVG Export Plug-In . SVG Version: 6.00 Build 0)  -->
<svg version="1.1" id="Layer_1" xmlns="http://www.w3.org/2000/svg" xmlns:xlink="http://www.w3.org/1999/xlink" x="0px" y="0px"
	 viewBox="0 0 290.917 290.917" style="enable-background:new 0 0 290.917 290.917;" xml:space="preserve">
<g>
	<g>
		<g id="XMLID_5_">
			<g>
				<g>
					<path style="fill:#2D213F;" d="M275.671,132.429v150.136c0,4.597-3.723,8.352-8.352,8.352H23.566
						c-4.597,0-8.319-3.755-8.319-8.352V132.429c0-2.104,0.777-4.111,2.201-5.665l30.817-33.472
						c0.647-0.712,1.457-1.262,2.298-1.716V52.15c0-2.266,0.939-4.435,2.557-6.021L98.634,2.331C100.188,0.842,102.26,0,104.429,0
						h125.47c4.597,0,8.352,3.755,8.352,8.352v83.549c0.518,0.324,1.036,0.68,1.489,1.133l33.472,33.504
						C274.797,128.092,275.671,130.228,275.671,132.429z M259,262.237V150.233l-75.845,35.22L259,262.237z M238.249,141.461
						l17.966-8.352l-17.966-17.966V141.461z M247.378,274.214L146.154,171.76L43.701,274.214H247.378z M221.578,149.23V16.703
						H112.521v34.41c0,4.597-3.723,8.319-8.352,8.319H67.267v88.599l53.736,25.314l19.293-19.293c1.586-1.586,3.69-2.46,5.892-2.46
						c0.032,0,0.032,0,0.032,0c2.234,0,4.37,0.906,5.924,2.493l18.549,18.775L221.578,149.23z M31.917,262.431l76.525-76.557
						l-76.525-36.061V262.431z M95.85,42.762V28.195L80.7,42.762H95.85z M50.563,140.166v-24.764l-15.862,17.254L50.563,140.166z"/>
				</g>
				<g>
					<polygon style="fill:#FEDE94;" points="259,150.233 259,262.237 183.154,185.453 					"/>
				</g>
				<g>
					<polygon style="fill:#F2CE75;" points="256.216,133.109 238.249,141.461 238.249,115.143 					"/>
				</g>
				<g>
					<polygon style="fill:#FEDE94;" points="146.154,171.76 247.378,274.214 43.701,274.214 					"/>
				</g>
				<g>
					<polygon style="fill:#F2CE75;" points="258.996,262.152 194.697,180.092 183.154,185.453 259,262.237 					"/>
				</g>
				<g>
					<path style="fill:#C5CBCF;" d="M221.578,16.703V149.23l-50.887,23.631l-18.549-18.775c-1.554-1.586-3.69-2.493-5.924-2.493
						c0,0,0,0-0.032,0c-2.201,0-4.305,0.874-5.892,2.46l-19.293,19.293l-53.736-25.314V59.433h36.903
						c4.629,0,8.352-3.723,8.352-8.319v-34.41L221.578,16.703L221.578,16.703z"/>
				</g>
				<g>
					<polygon style="fill:#FEDE94;" points="108.442,185.874 31.917,262.431 31.917,149.813 					"/>
				</g>
				<g>
					<polygon style="fill:#C5CBCF;" points="95.85,28.195 95.85,42.762 80.701,42.762 					"/>
				</g>
				<g>
					<polygon style="fill:#F2CE75;" points="50.563,115.402 50.563,140.166 34.701,132.656 					"/>
				</g>
			</g>
		</g>
		<g>
			<polygon style="fill:#F2CE75;" points="97.414,180.675 31.389,262.709 31.917,262.431 108.442,185.874 			"/>
		</g>
		<g>
			<path style="fill:#EAEEEF;" d="M188.954,20.886h-76.434v30.228c0,4.597-3.723,8.319-8.352,8.319H67.267v70.828
				c3.415,9.446,8.76,17.959,15.548,25.094l38.188,17.992l19.293-19.293c1.586-1.586,3.69-2.46,5.892-2.46c0.032,0,0.032,0,0.032,0
				c2.234,0,4.37,0.906,5.924,2.493l18.549,18.775l28.538-13.253c1.405-3.422,2.195-7.16,2.195-11.087V33.352
				C201.424,26.466,195.843,20.886,188.954,20.886z"/>
		</g>
		<g>
			<path style="fill:#F2CE75;" d="M139.984,177.93c7.934,7.005,65.901,58.475,99.12,96.284h8.274L146.154,171.76L139.984,177.93z"/>
		</g>
	</g>
</g>
<g>
</g>
<g>
</g>
<g>
</g>
<g>
</g>
<g>
</g>
<g>
</g>
<g>
</g>
<g>
</g>
<g>
</g>
<g>
</g>
<g>
</g>
<g>
</g>
<g>
</g>
<g>
</g>
<g>
</g>
</svg>
