<?xml version="1.0" encoding="iso-8859-1"?>
<!-- Generator: Adobe Illustrator 19.0.0, SVG Export Plug-In . SVG Version: 6.00 Build 0)  -->
<svg version="1.1" id="Layer_1" xmlns="http://www.w3.org/2000/svg" xmlns:xlink="http://www.w3.org/1999/xlink" x="0px" y="0px"
	 viewBox="0 0 273.178 273.178" style="enable-background:new 0 0 273.178 273.178;" xml:space="preserve">
<g>
	<g>
		<g>
			<g>
				<g id="XMLID_16_">
					<g>
						<g>
							<rect x="16.671" y="63.609" style="fill:#C5CBCF;" width="17.383" height="145.96"/>
						</g>
						<g>
							<rect x="50.758" y="45.546" style="fill:#C5CBCF;" width="20.847" height="182.086"/>
						</g>
						<g>
							<rect x="115.046" y="59.627" style="fill:#AAE1E9;" width="45.87" height="33.342"/>
						</g>
						<g>
							<path style="fill:#2D213F;" d="M273.178,18.419v236.34c0,4.597-3.755,8.319-8.352,8.319H79.924
								c-4.597,0-8.319-3.723-8.319-8.319v-10.423H42.406c-4.597,0-8.352-3.755-8.352-8.352v-9.711H8.352
								c-4.629,0-8.352-3.755-8.352-8.352V55.257c0-4.597,3.723-8.319,8.352-8.319h25.702v-9.744c0-4.597,3.755-8.352,8.352-8.352
								h29.199V18.419c0-4.597,3.723-8.319,8.319-8.319h184.903C269.423,10.1,273.178,13.822,273.178,18.419z M256.475,246.407
								V26.771h-168.2v219.637C88.275,246.407,256.475,246.407,256.475,246.407z M71.604,227.632V45.546H50.758v182.086H71.604z
								 M34.054,209.569V63.609H16.671v145.96H34.054z"/>
						</g>
						<g>
							<path style="fill:#2D213F;" d="M236.502,128.933c4.597,0,8.352,3.755,8.352,8.352s-3.755,8.352-8.352,8.352H106.177
								c-4.597,0-8.352-3.755-8.352-8.352s3.755-8.352,8.352-8.352H236.502z"/>
						</g>
						<g>
							<path style="fill:#2D213F;" d="M236.502,158.488c4.597,0,8.352,3.723,8.352,8.352c0,4.597-3.755,8.319-8.352,8.319H106.177
								c-4.597,0-8.352-3.723-8.352-8.319c0-4.629,3.755-8.352,8.352-8.352H236.502z"/>
						</g>
						<g>
							<path style="fill:#2D213F;" d="M236.502,188.01c4.597,0,8.352,3.755,8.352,8.352s-3.755,8.352-8.352,8.352H106.177
								c-4.597,0-8.352-3.755-8.352-8.352s3.755-8.352,8.352-8.352H236.502z"/>
						</g>
						<g>
							<path style="fill:#2D213F;" d="M236.502,217.565c4.597,0,8.352,3.723,8.352,8.352c0,4.597-3.755,8.319-8.352,8.319H106.177
								c-4.597,0-8.352-3.723-8.352-8.319c0-4.629,3.755-8.352,8.352-8.352H236.502z"/>
						</g>
						<g>
							<path style="fill:#2D213F;" d="M177.587,51.276v50.045c0,4.597-3.723,8.352-8.319,8.352h-62.573
								c-4.597,0-8.352-3.755-8.352-8.352V51.276c0-4.597,3.755-8.352,8.352-8.352h62.573
								C173.864,42.924,177.587,46.679,177.587,51.276z M160.916,92.969V59.627h-45.87v33.342
								C115.046,92.969,160.916,92.969,160.916,92.969z"/>
						</g>
						<g>
							<path style="fill:#C5CBCF;" d="M98.343,101.321c0,4.597,3.755,8.352,8.352,8.352h62.573c4.597,0,8.319-3.755,8.319-8.352
								V51.276c0-4.597-3.723-8.352-8.319-8.352h-62.573c-4.597,0-8.352,3.755-8.352,8.352
								C98.343,51.276,98.343,101.321,98.343,101.321z M97.825,196.362c0,4.597,3.755,8.352,8.352,8.352h130.325
								c4.597,0,8.352-3.755,8.352-8.352s-3.755-8.352-8.352-8.352H106.177C101.58,188.01,97.825,191.765,97.825,196.362z
								 M97.825,137.285c0,4.597,3.755,8.352,8.352,8.352h130.325c4.597,0,8.352-3.755,8.352-8.352s-3.755-8.352-8.352-8.352
								H106.177C101.58,128.933,97.825,132.688,97.825,137.285z M97.825,166.84c0,4.597,3.755,8.319,8.352,8.319h130.325
								c4.597,0,8.352-3.723,8.352-8.319c0-4.629-3.755-8.352-8.352-8.352H106.177C101.58,158.488,97.825,162.211,97.825,166.84z
								 M97.825,225.916c0,4.597,3.755,8.319,8.352,8.319h130.325c4.597,0,8.352-3.723,8.352-8.319c0-4.629-3.755-8.352-8.352-8.352
								H106.177C101.58,217.565,97.825,221.287,97.825,225.916z M88.275,246.407V26.771h168.199v219.637
								C256.475,246.407,88.275,246.407,88.275,246.407z"/>
						</g>
					</g>
				</g>
			</g>
			<g>
				<path style="fill:#EAEEEF;" d="M229.769,40.082H107.753c-7.74,0-14.677,3.373-19.478,8.708v189.629
					c3.46,3.02,7.973,4.865,12.926,4.865h136.663c6.461,0,11.702-5.238,11.702-11.702V59.88
					C249.563,48.945,240.7,40.082,229.769,40.082z M98.343,51.276c0-4.597,3.755-8.352,8.352-8.352h62.573
					c4.597,0,8.319,3.755,8.319,8.352v50.045c0,4.597-3.723,8.352-8.319,8.352h-62.573c-4.597,0-8.352-3.755-8.352-8.352
					C98.343,101.321,98.343,51.276,98.343,51.276z M236.502,234.236H106.177c-4.597,0-8.352-3.723-8.352-8.319
					c0-4.629,3.755-8.352,8.352-8.352h130.325c4.597,0,8.352,3.723,8.352,8.352C244.853,230.513,241.098,234.236,236.502,234.236z
					 M236.502,204.714H106.177c-4.597,0-8.352-3.755-8.352-8.352s3.755-8.352,8.352-8.352h130.325c4.597,0,8.352,3.755,8.352,8.352
					C244.853,200.959,241.098,204.714,236.502,204.714z M236.502,175.159H106.177c-4.597,0-8.352-3.723-8.352-8.319
					c0-4.629,3.755-8.352,8.352-8.352h130.325c4.597,0,8.352,3.723,8.352,8.352C244.853,171.436,241.098,175.159,236.502,175.159z
					 M236.502,145.637H106.177c-4.597,0-8.352-3.755-8.352-8.352s3.755-8.352,8.352-8.352h130.325c4.597,0,8.352,3.755,8.352,8.352
					C244.853,141.882,241.098,145.637,236.502,145.637z"/>
			</g>
		</g>
		<g>
			<path style="fill:#92C1CA;" d="M160.819,92.969h0.097V59.627h-43.969C137.279,65.14,151.959,76.198,160.819,92.969z"/>
		</g>
	</g>
</g>
<g>
</g>
<g>
</g>
<g>
</g>
<g>
</g>
<g>
</g>
<g>
</g>
<g>
</g>
<g>
</g>
<g>
</g>
<g>
</g>
<g>
</g>
<g>
</g>
<g>
</g>
<g>
</g>
<g>
</g>
</svg>
