<?xml version="1.0" encoding="iso-8859-1"?>
<!-- Generator: Adobe Illustrator 19.0.0, SVG Export Plug-In . SVG Version: 6.00 Build 0)  -->
<svg version="1.1" id="Layer_1" xmlns="http://www.w3.org/2000/svg" xmlns:xlink="http://www.w3.org/1999/xlink" x="0px" y="0px"
	 viewBox="0 0 316.126 316.126" style="enable-background:new 0 0 316.126 316.126;" xml:space="preserve">
<g>
	<g>
		<g id="XMLID_37_">
			<g>
				<path style="fill:#C5CBCF;" d="M203.224,106.252l-52.603,52.635c-1.554,1.554-2.428,3.658-2.428,5.859s0.874,4.338,2.428,5.891
					l45.837,45.837c-13.952,12.01-31.4,18.549-50.013,18.549c-39.331,0-71.831-29.716-76.363-67.849
					c0.162-0.647,0.259-1.327,0.259-2.007c0-1.101-0.227-2.169-0.647-3.14c-0.065-1.327-0.194-2.622-0.194-3.949
					c0-42.438,34.54-76.978,76.946-76.978C168.329,81.1,188.658,90.196,203.224,106.252z M157.938,105.087
					c0-6.021-4.888-10.909-10.909-10.909s-10.909,4.888-10.909,10.909s4.888,10.909,10.909,10.909S157.938,111.108,157.938,105.087z
					"/>
				<path style="fill:#EAEEEF;" d="M194.119,218.317l-35.595-35.595c-1.554-1.554-2.428-3.69-2.428-5.892
					c0-0.223,0.049-0.437,0.065-0.654l-5.539-5.539c-1.554-1.554-2.428-3.69-2.428-5.891s0.874-4.305,2.428-5.859l50.071-50.104
					c-13.178-10.048-29.283-15.6-46.345-15.6c-42.406,0-76.946,34.54-76.946,76.978c0,1.327,0.129,2.622,0.194,3.949
					c0.421,0.971,0.647,2.039,0.647,3.14c0,0.68-0.097,1.36-0.259,2.007c1.13,9.498,3.995,18.468,8.268,26.593
					c14.098,17.749,35.825,29.173,60.194,29.173C164.049,235.024,180.571,229.109,194.119,218.317z M136.12,105.087
					c0-6.021,4.888-10.909,10.909-10.909s10.909,4.888,10.909,10.909s-4.888,10.909-10.909,10.909
					C141.008,115.996,136.12,111.108,136.12,105.087z"/>
				<path style="fill:#2D213F;" d="M314.451,132.376c2.493,3.302,2.169,7.963-0.745,10.877L291.5,165.459l19.228,19.228
					c3.172,3.205,3.269,8.319,0.162,11.589c-9.485,10.035-22.271,15.57-35.996,15.57c-20.426,0-37.971-12.398-45.578-30.04
					c-4.629,4.564-10.197,10.164-15.473,15.441c-1.586,1.586-3.723,2.428-5.892,2.428c-1.068,0-2.136-0.194-3.172-0.615
					c-1.165-0.486-2.169-1.198-2.978-2.104c-1.36-1.489-2.136-3.464-2.136-5.568v-51.729c0-2.104,0.777-4.079,2.136-5.6
					c0.194-0.227,0.421-0.421,0.647-0.615c0.68-0.615,1.457-1.133,2.331-1.489c3.108-1.262,6.668-0.55,9.064,1.813l13.661,13.693
					c6.312-20.167,25.152-34.863,47.391-34.863C290.529,112.597,304.966,119.816,314.451,132.376z M273.858,159.599l22.433-22.433
					c-5.924-5.115-13.434-7.931-21.397-7.931c-18.192,0-33.018,14.794-33.018,32.986c0,0.388,0.065,0.745,0.065,1.133
					c0.324,1.036,0.388,2.169,0.259,3.269c2.169,16.121,15.991,28.583,32.695,28.583c6.377,0,12.43-1.78,17.675-5.147l-18.71-18.71
					C270.621,168.081,270.621,162.837,273.858,159.599z M222.129,165.588l-5.859-5.859v11.589
					C218.504,169.084,220.446,167.207,222.129,165.588z"/>
				<path style="fill:#2D213F;" d="M268.063,141.957c0-2.881,2.331-5.179,5.212-5.179c2.849,0,5.179,2.298,5.179,5.179
					s-2.331,5.212-5.179,5.212C270.394,147.169,268.063,144.838,268.063,141.957z"/>
				<path style="fill:#FEDE94;" d="M273.275,136.778c-2.881,0-5.212,2.298-5.212,5.179s2.331,5.212,5.212,5.212
					c2.849,0,5.179-2.331,5.179-5.212C278.454,139.076,276.124,136.778,273.275,136.778z M241.875,162.221
					c0-18.192,14.826-32.986,33.018-32.986c7.963,0,15.473,2.816,21.397,7.931l-22.432,22.433c-3.237,3.237-3.237,8.481,0,11.751
					l18.71,18.71c-5.244,3.367-11.297,5.147-17.675,5.147c-16.703,0-30.526-12.463-32.695-28.584
					c0.129-1.101,0.065-2.234-0.259-3.269C241.94,162.966,241.875,162.61,241.875,162.221z"/>
				<path style="fill:#2D213F;" d="M221.093,101.785c2.493,3.302,2.169,7.931-0.745,10.877l-19.325,19.358l-0.647,0.615
					l-32.144,32.112l32.889,32.889l13.11,13.078c3.172,3.205,3.237,8.319,0.162,11.589c-17.901,18.937-42.017,29.328-67.947,29.328
					c-43.183,0-79.632-29.425-90.347-69.274c-11.492,11.33-29.36,29.199-41.888,41.758c-1.586,1.586-3.723,2.46-5.892,2.46
					c-1.068,0-2.136-0.227-3.172-0.647C2.039,224.633,0,221.622,0,218.255V111.464c0-3.367,2.039-6.377,5.147-7.672
					s6.668-0.583,9.064,1.78l39.59,39.59c6.28-45.513,45.449-80.668,92.646-80.668C176.001,64.494,203.192,78.09,221.093,101.785z
					 M150.622,158.887l52.603-52.635C188.658,90.196,168.329,81.1,146.446,81.1c-42.406,0-76.946,34.54-76.946,76.978
					c0,1.327,0.129,2.622,0.194,3.949c0.421,0.971,0.647,2.039,0.647,3.14c0,0.68-0.097,1.36-0.259,2.007
					c4.532,38.133,37.032,67.849,76.363,67.849c18.613,0,36.061-6.539,50.013-18.549l-45.837-45.837
					c-1.554-1.554-2.428-3.69-2.428-5.891S149.068,160.441,150.622,158.887z M50.11,165.038l-33.472-33.504v66.619
					c3.852-3.852,8.157-8.125,12.463-12.43C38.78,176.076,45.416,169.473,50.11,165.038z"/>
				<circle style="fill:#2D213F;" cx="147.029" cy="105.087" r="10.909"/>
				<path style="fill:#FEDE94;" d="M50.11,165.038c-4.694,4.435-11.33,11.038-21.009,20.685c-4.305,4.305-8.611,8.578-12.463,12.43
					v-66.619L50.11,165.038z"/>
			</g>
		</g>
	</g>
</g>
<g>
</g>
<g>
</g>
<g>
</g>
<g>
</g>
<g>
</g>
<g>
</g>
<g>
</g>
<g>
</g>
<g>
</g>
<g>
</g>
<g>
</g>
<g>
</g>
<g>
</g>
<g>
</g>
<g>
</g>
</svg>
