<?xml version="1.0" encoding="iso-8859-1"?>
<!-- Generator: Adobe Illustrator 19.0.0, SVG Export Plug-In . SVG Version: 6.00 Build 0)  -->
<svg version="1.1" id="Layer_1" xmlns="http://www.w3.org/2000/svg" xmlns:xlink="http://www.w3.org/1999/xlink" x="0px" y="0px"
	 viewBox="0 0 300.337 300.337" style="enable-background:new 0 0 300.337 300.337;" xml:space="preserve">
<g>
	<g>
		<g>
			<g id="XMLID_34_">
				<g>
					<path style="fill:#505967;" d="M45.756,173.864c8.449,0,15.311,6.863,15.311,15.311s-6.863,15.344-15.311,15.344
						s-15.344-6.895-15.344-15.344C30.412,180.727,37.307,173.864,45.756,173.864z"/>
					<path style="fill:#505967;" d="M253.545,173.864c8.449,0,15.311,6.863,15.311,15.311s-6.863,15.344-15.311,15.344
						s-15.311-6.895-15.311-15.344C238.234,180.727,245.096,173.864,253.545,173.864z"/>
					<path style="fill:#EAEEEF;" d="M281.643,281.433c0.097,0.745-0.194,1.262-0.486,1.586c-0.259,0.324-0.745,0.68-1.489,0.68
						H228.49c-0.777,0-1.262-0.356-1.521-0.68c-0.291-0.324-0.583-0.842-0.486-1.586l5.244-38.877
						c0.129-1.003,1.003-1.748,2.007-1.748h40.658c1.003,0,1.878,0.745,2.007,1.748L281.643,281.433z"/>
					<path style="fill:#EAEEEF;" d="M73.854,281.433c0.097,0.745-0.194,1.262-0.486,1.586c-0.259,0.324-0.745,0.68-1.521,0.68
						H20.669c-0.745,0-1.23-0.356-1.489-0.68c-0.291-0.324-0.583-0.842-0.486-1.586l5.244-38.877
						c0.129-1.003,1.003-1.748,2.007-1.748h40.658c1.003,0,1.845,0.745,2.007,1.748L73.854,281.433z"/>
					<path style="fill:#505967;" d="M150.67,16.606c8.449,0,15.344,6.895,15.344,15.344s-6.895,15.311-15.344,15.311
						s-15.311-6.863-15.311-15.311S142.222,16.606,150.67,16.606z"/>
					<path style="fill:#EAEEEF;" d="M178.801,124.175c0.097,0.745-0.227,1.295-0.486,1.619c-0.291,0.291-0.777,0.68-1.521,0.68
						h-51.178c-0.745,0-1.23-0.388-1.521-0.68c-0.259-0.324-0.583-0.874-0.486-1.619l5.276-38.845
						c0.129-1.003,0.971-1.748,1.975-1.748h40.69c1.003,0,1.845,0.745,1.975,1.748L178.801,124.175z"/>
					<path style="fill:#2D213F;" d="M298.12,279.199c0.712,5.341-0.906,10.715-4.435,14.761c-3.528,4.046-8.643,6.377-14.017,6.377
						H228.49c-5.406,0-10.521-2.331-14.049-6.377c-3.528-4.046-5.147-9.42-4.435-14.761l5.244-38.877
						c1.262-9.193,9.193-16.153,18.484-16.153h40.658c9.29,0,17.221,6.96,18.484,16.153L298.12,279.199z M281.157,283.019
						c0.291-0.324,0.583-0.842,0.486-1.586l-5.244-38.877c-0.129-1.003-1.003-1.748-2.007-1.748h-40.658
						c-1.003,0-1.878,0.745-2.007,1.748l-5.244,38.877c-0.097,0.745,0.194,1.262,0.486,1.586c0.259,0.324,0.745,0.68,1.521,0.68
						h51.178C280.413,283.699,280.898,283.342,281.157,283.019z"/>
					<path style="fill:#2D213F;" d="M253.545,157.225c17.61,0,31.95,14.34,31.95,31.95s-14.34,31.95-31.95,31.95
						s-31.95-14.34-31.95-31.95S235.935,157.225,253.545,157.225z M268.856,189.176c0-8.449-6.863-15.311-15.311-15.311
						s-15.311,6.863-15.311,15.311s6.863,15.344,15.311,15.344S268.856,197.624,268.856,189.176z"/>
					<path style="fill:#2D213F;" d="M195.277,121.974c0.712,5.309-0.906,10.715-4.467,14.761c-3.528,4.046-8.643,6.345-14.017,6.345
						h-51.178c-5.374,0-10.488-2.298-14.017-6.345c-3.561-4.046-5.179-9.452-4.467-14.761l5.276-38.877
						c1.23-9.226,9.193-16.153,18.451-16.153h40.69c9.258,0,17.221,6.927,18.451,16.153L195.277,121.974z M178.315,125.793
						c0.259-0.324,0.583-0.874,0.486-1.619l-5.276-38.845c-0.129-1.003-0.971-1.748-1.975-1.748h-40.69
						c-1.004,0-1.845,0.745-1.975,1.748l-5.276,38.845c-0.097,0.745,0.227,1.295,0.486,1.619c0.291,0.291,0.777,0.68,1.521,0.68
						h51.178C177.538,126.473,178.024,126.085,178.315,125.793z"/>
					<path style="fill:#2D213F;" d="M192.979,242.749c3.108,3.367,2.913,8.611-0.453,11.751c-1.586,1.489-3.626,2.201-5.665,2.201
						c-2.234,0-4.435-0.874-6.086-2.654l-29.458-31.756l-30.267,30.267c-1.619,1.619-3.755,2.428-5.859,2.428
						c-2.136,0-4.273-0.809-5.892-2.428c-3.237-3.269-3.237-8.514,0-11.751l33.925-33.957v-45.708c0-4.597,3.723-8.319,8.319-8.319
						c4.597,0,8.319,3.723,8.319,8.319v45.902L192.979,242.749z"/>
					<path style="fill:#2D213F;" d="M150.67,0c17.642,0,31.95,14.34,31.95,31.95S168.312,63.9,150.67,63.9
						c-17.61,0-31.95-14.34-31.95-31.95S133.061,0,150.67,0z M166.014,31.95c0-8.449-6.895-15.344-15.344-15.344
						s-15.311,6.895-15.311,15.344s6.863,15.311,15.311,15.311S166.014,40.399,166.014,31.95z"/>
					<path style="fill:#2D213F;" d="M90.331,279.199c0.712,5.341-0.906,10.715-4.435,14.761c-3.561,4.046-8.675,6.377-14.049,6.377
						H20.669c-5.374,0-10.488-2.331-14.017-6.377c-3.528-4.046-5.147-9.42-4.435-14.761l5.244-38.877
						c1.262-9.193,9.193-16.153,18.484-16.153h40.658c9.29,0,17.221,6.96,18.451,16.153L90.331,279.199z M73.369,283.019
						c0.291-0.324,0.583-0.842,0.486-1.586l-5.244-38.877c-0.162-1.003-1.003-1.748-2.007-1.748H25.945
						c-1.003,0-1.878,0.745-2.007,1.748l-5.244,38.877c-0.097,0.745,0.194,1.262,0.486,1.586c0.259,0.324,0.745,0.68,1.489,0.68
						h51.178C72.624,283.699,73.11,283.342,73.369,283.019z"/>
					<path style="fill:#2D213F;" d="M45.756,157.225c17.61,0,31.95,14.34,31.95,31.95s-14.34,31.95-31.95,31.95
						c-17.642,0-31.95-14.34-31.95-31.95S28.114,157.225,45.756,157.225z M61.068,189.176c0-8.449-6.863-15.311-15.311-15.311
						s-15.344,6.863-15.344,15.311s6.895,15.344,15.344,15.344S61.068,197.624,61.068,189.176z"/>
				</g>
			</g>
		</g>
		<path style="fill:#C5CBCF;" d="M126.098,126.473h50.696c0.745,0,1.23-0.388,1.521-0.68c0.259-0.324,0.583-0.874,0.486-1.619
			l-5.276-38.845c-0.042-0.33-0.181-0.615-0.359-0.871C167.335,96.893,154.325,112.363,126.098,126.473z"/>
		<path style="fill:#C5CBCF;" d="M21.271,283.718h50.696c0.745,0,1.23-0.388,1.521-0.68c0.259-0.324,0.583-0.874,0.486-1.619
			l-5.276-38.845c-0.042-0.33-0.181-0.612-0.359-0.871C62.508,254.137,49.498,269.607,21.271,283.718z"/>
		<path style="fill:#C5CBCF;" d="M229.027,283.718h50.696c0.745,0,1.23-0.388,1.521-0.68c0.259-0.324,0.583-0.874,0.486-1.619
			l-5.276-38.845c-0.042-0.33-0.181-0.612-0.359-0.871C270.265,254.137,257.255,269.607,229.027,283.718z"/>
	</g>
</g>
<g>
</g>
<g>
</g>
<g>
</g>
<g>
</g>
<g>
</g>
<g>
</g>
<g>
</g>
<g>
</g>
<g>
</g>
<g>
</g>
<g>
</g>
<g>
</g>
<g>
</g>
<g>
</g>
<g>
</g>
</svg>
