<?xml version="1.0" encoding="iso-8859-1"?>
<!-- Generator: Adobe Illustrator 19.0.0, SVG Export Plug-In . SVG Version: 6.00 Build 0)  -->
<svg version="1.1" id="Layer_1" xmlns="http://www.w3.org/2000/svg" xmlns:xlink="http://www.w3.org/1999/xlink" x="0px" y="0px"
	 viewBox="0 0 281.206 281.206" style="enable-background:new 0 0 281.206 281.206;" xml:space="preserve">
<g>
	<g>
		<g>
			<g id="XMLID_36_">
				<g>
					<path style="fill:#2D213F;" d="M281.206,214.797v33.245c0,4.564-3.723,8.287-8.287,8.287H22.498
						c-4.564,0-8.287-3.723-8.287-8.287v-33.245c0-4.597,3.723-8.319,8.287-8.319h9.29c-0.291-1.392-0.453-2.784-0.453-4.241
						v-86.366H8.319c-4.597,0-8.319-3.723-8.319-8.319V33.164c0-4.564,3.723-8.287,8.319-8.287h94.199
						c4.597,0,8.319,3.723,8.319,8.287v11.233h133.4c11.524,0,20.879,9.355,20.879,20.847v136.994c0,1.457-0.162,2.849-0.453,4.241
						h8.255C277.483,206.478,281.206,210.2,281.206,214.797z M264.6,239.723v-16.639h-93.002v2.881c0,1.198-0.971,2.136-2.169,2.136
						h-43.798c-1.198,0-2.169-0.939-2.169-2.136v-2.881H30.817v16.639L264.6,239.723L264.6,239.723z M248.479,202.237V65.244
						c0-2.331-1.91-4.241-4.241-4.241h-133.4v46.549c0,4.597-3.723,8.319-8.319,8.319h-9.485
						c-4.241,5.568-10.456,13.822-10.941,14.47c-1.457,2.169-3.755,3.399-6.377,3.528c-0.129,0.032-0.259,0.032-0.421,0.032
						c-2.46,0-4.726-1.23-6.312-3.14l-12.43-14.891h-8.578v86.366c0,2.331,1.878,4.241,4.241,4.241h11.168v-48.136
						c0-4.597,3.723-8.319,8.319-8.319h33.245c4.564,0,8.287,3.723,8.287,8.319v48.136h9.355v-70.989
						c0-4.597,3.723-8.319,8.319-8.319h33.245c4.597,0,8.319,3.723,8.319,8.319v70.989h10.747v-103.91
						c0-4.597,3.69-8.319,8.287-8.319h33.245c4.597,0,8.319,3.723,8.319,8.319v103.911h11.168
						C246.569,206.478,248.479,204.568,248.479,202.237z M216.464,205.442v-94.555h-16.639v94.555H216.464z M155.833,205.442
						v-61.667h-16.606v61.667L155.833,205.442L155.833,205.442z M96.627,205.442v-38.813H79.988v38.813H96.627z M94.199,99.233
						v-57.75H16.606v57.75h43.83c2.46,0,4.791,1.101,6.377,2.978l8.222,9.873c1.489-1.942,3.302-4.338,5.503-7.283l1.716-2.266
						c1.586-2.072,4.046-3.302,6.636-3.302C88.89,99.233,94.199,99.233,94.199,99.233z"/>
					<path style="fill:#505967;" d="M264.6,223.084v16.639H30.817v-16.639h92.646v2.881c0,1.198,0.971,2.136,2.169,2.136h43.798
						c1.198,0,2.169-0.939,2.169-2.136v-2.881L264.6,223.084L264.6,223.084z"/>
					<path style="fill:#C5CBCF;" d="M248.479,65.244v136.994c0,2.331-1.91,4.241-4.241,4.241H233.07V102.567
						c0-4.597-3.723-8.319-8.319-8.319h-33.245c-4.597,0-8.287,3.723-8.287,8.319v103.911h-10.747v-70.989
						c0-4.597-3.723-8.319-8.319-8.319h-33.245c-4.597,0-8.319,3.723-8.319,8.319v70.989h-9.355v-48.136
						c0-4.597-3.723-8.319-8.287-8.319H71.702c-4.597,0-8.319,3.723-8.319,8.319v48.136H52.214c-2.363,0-4.241-1.91-4.241-4.241
						v-86.366h8.578l12.43,14.891c1.586,1.91,3.852,3.14,6.312,3.14c0.162,0,0.291,0,0.421-0.032c2.622-0.129,4.92-1.36,6.377-3.528
						c0.486-0.647,6.701-8.902,10.941-14.47h9.485c4.597,0,8.319-3.723,8.319-8.319v-46.55h133.4
						C246.569,61.003,248.479,62.913,248.479,65.244z"/>
					<rect x="199.826" y="110.887" style="fill:#F47C6D;" width="16.639" height="94.555"/>
					<rect x="139.227" y="143.775" style="fill:#F47C6D;" width="16.606" height="61.667"/>
					<rect x="79.988" y="166.629" style="fill:#F47C6D;" width="16.639" height="38.813"/>
					<path style="fill:#FEDE94;" d="M94.199,41.483v57.75H88.89c-2.59,0-5.05,1.23-6.636,3.302l-1.716,2.266
						c-2.201,2.946-4.014,5.341-5.503,7.283l-8.222-9.873c-1.586-1.878-3.917-2.978-6.377-2.978h-43.83v-57.75
						C16.606,41.483,94.199,41.483,94.199,41.483z M86.56,69.775c0.259-3.431-2.331-6.409-5.762-6.668
						c-3.431-0.259-6.409,2.331-6.668,5.762s2.331,6.409,5.762,6.668C83.323,75.796,86.301,73.207,86.56,69.775z M60.922,69.775
						c0.259-3.431-2.298-6.409-5.73-6.668c-3.464-0.259-6.442,2.331-6.701,5.762s2.331,6.409,5.762,6.668
						C57.685,75.796,60.663,73.207,60.922,69.775z M36.353,69.322c0-3.431-2.784-6.215-6.215-6.215
						c-3.464,0-6.248,2.784-6.248,6.215s2.784,6.248,6.248,6.248C33.569,75.57,36.353,72.754,36.353,69.322z"/>
					<circle style="fill:#2D213F;" cx="80.345" cy="69.322" r="6.231"/>
					<path style="fill:#2D213F;" d="M55.192,63.107c3.431,0.259,5.989,3.237,5.73,6.668s-3.237,6.021-6.668,5.762
						s-6.021-3.237-5.762-6.668S51.729,62.848,55.192,63.107z"/>
					<path style="fill:#2D213F;" d="M30.137,63.107c3.431,0,6.215,2.784,6.215,6.215s-2.784,6.248-6.215,6.248
						c-3.464,0-6.248-2.816-6.248-6.248C23.89,65.891,26.674,63.107,30.137,63.107z"/>
				</g>
			</g>
		</g>
		<path style="fill:#EAEEEF;" d="M224.249,75.016H110.838v32.536c0,4.597-3.723,8.319-8.319,8.319h-9.485
			c-4.241,5.568-10.456,13.822-10.941,14.47c-1.457,2.169-3.755,3.399-6.377,3.528c-0.129,0.032-0.259,0.032-0.421,0.032
			c-2.46,0-4.726-1.23-6.312-3.14l-12.43-14.891h-8.578v70.342c3.94,4.338,9.326,7.313,15.409,8.174v-36.045
			c0-4.597,3.723-8.319,8.319-8.319h33.245c4.564,0,8.287,3.723,8.287,8.319v36.33h9.355v-59.184c0-4.597,3.723-8.319,8.319-8.319
			h33.245c4.597,0,8.319,3.723,8.319,8.319v59.184h10.747v-92.105c0-4.597,3.69-8.319,8.287-8.319h33.245
			c4.597,0,8.319,3.723,8.319,8.319v90.247c2.858-1.939,4.739-5.215,4.739-8.931V88.576
			C237.81,81.086,231.737,75.016,224.249,75.016z"/>
		<path style="fill:#EF685E;" d="M96.627,205.442v-36.32c-2.337,10.025-7.002,24.404-15.943,36.32L96.627,205.442L96.627,205.442z"
			/>
		<path style="fill:#EF685E;" d="M155.833,149.049c-1.813,16.049-6.348,35.268-16.606,53.101v3.292h16.606V149.049z"/>
		<path style="fill:#EF685E;" d="M216.464,110.887h-0.068c-1.651,25.825-5.937,58.695-16.571,87.893v6.662h16.639L216.464,110.887
			L216.464,110.887z"/>
		<path style="fill:#454D5B;" d="M264.6,239.723v-16.639h-17.124c-34.66,4.024-103.512,11.518-176.14,16.639L264.6,239.723
			L264.6,239.723z"/>
		<path style="fill:#F2CE75;" d="M78.415,63.398c0.748-0.243,1.551-0.356,2.382-0.291c3.431,0.259,6.021,3.237,5.762,6.668
			c-0.058,0.751-0.262,1.447-0.557,2.098c2.955,3.774,5.694,7.992,8.196,12.615V41.483H41.985
			C53.088,45.206,66.568,51.787,78.415,63.398z"/>
	</g>
</g>
<g>
</g>
<g>
</g>
<g>
</g>
<g>
</g>
<g>
</g>
<g>
</g>
<g>
</g>
<g>
</g>
<g>
</g>
<g>
</g>
<g>
</g>
<g>
</g>
<g>
</g>
<g>
</g>
<g>
</g>
</svg>
