<?xml version="1.0" encoding="iso-8859-1"?>
<!-- Generator: Adobe Illustrator 19.0.0, SVG Export Plug-In . SVG Version: 6.00 Build 0)  -->
<svg version="1.1" id="Layer_1" xmlns="http://www.w3.org/2000/svg" xmlns:xlink="http://www.w3.org/1999/xlink" x="0px" y="0px"
	 viewBox="0 0 290.205 290.205" style="enable-background:new 0 0 290.205 290.205;" xml:space="preserve">
<g>
	<g>
		<g>
			<g id="XMLID_11_">
				<g>
					<g>
						<g>
							<path style="fill:#FEDE94;" d="M124.757,135.569c3.205,3.269,8.416,3.269,11.621,0c3.237-3.237,3.237-8.514,0-11.751
								l-2.266-2.331h25.314l-18.613,18.84c-1.521,1.554-2.395,3.69-2.395,5.891v55.937h-28.422v-29.101
								c0-2.978-1.586-5.73-4.143-7.219c-24.473-14.242-39.655-40.786-39.655-69.305c0-44.057,35.381-79.891,78.888-79.891
								s78.92,35.835,78.92,79.891c0,29.36-15.862,56.293-41.37,70.31c-2.654,1.424-4.305,4.241-4.305,7.316v28.001h-23.469v-52.506
								l30.234-30.59c2.331-2.395,3.043-5.956,1.78-9.064c-1.262-3.108-4.273-5.147-7.607-5.147h-65.001
								c-3.334,0-6.345,2.039-7.607,5.147s-0.583,6.668,1.78,9.064L124.757,135.569z"/>
						</g>
					</g>
					<g>
						<g>
							<path style="fill:#2D213F;" d="M66.197,96.53c0,28.519,15.182,55.063,39.654,69.306c2.557,1.489,4.143,4.241,4.143,7.219
								v29.101h28.422v-55.937c0-2.201,0.874-4.338,2.395-5.891l18.613-18.84h-25.314l2.266,2.331c3.237,3.237,3.237,8.514,0,11.751
								c-3.205,3.269-8.416,3.269-11.621,0l-16.315-16.509c-2.363-2.395-3.043-5.956-1.78-9.064
								c1.262-3.108,4.273-5.147,7.607-5.147h65.001c3.334,0,6.345,2.039,7.607,5.147s0.55,6.668-1.78,9.064l-30.234,30.59v52.506
								h23.469v-28.001c0-3.075,1.651-5.892,4.305-7.316c25.508-14.017,41.37-40.949,41.37-70.31
								c0-44.057-35.414-79.891-78.92-79.891S66.197,52.473,66.197,96.53z M240.451,96.53c0,33.795-17.383,64.936-45.675,82.416
								v31.562c0,0.55-0.065,1.101-0.162,1.619c2.978,3.431,4.856,7.898,4.856,12.819v0.647c0,4.143-1.295,7.963-3.496,11.136
								c2.201,3.14,3.496,6.96,3.496,11.103v0.647c0,10.747-8.611,19.455-19.196,19.455h-8.74v0.712
								c0,11.88-9.549,21.559-21.3,21.559h-10.909c-11.751,0-21.3-9.679-21.3-21.559v-0.712h-10.941
								c-10.585,0-19.196-8.708-19.196-19.455v-0.647c0-4.143,1.327-7.963,3.496-11.103c-2.169-3.172-3.496-6.992-3.496-11.136
								v-0.647c0-5.406,2.201-10.294,5.73-13.822c-0.032-0.194-0.065-0.421-0.065-0.615v-32.792
								c-27.127-17.674-43.798-48.362-43.798-81.186C49.753,43.312,92.515,0,145.085,0C197.688,0,240.451,43.312,240.451,96.53z
								 M183.024,248.479v-0.647c0-1.521-1.23-2.784-2.752-2.784h-73.191c-1.521,0-2.752,1.262-2.752,2.784v0.647
								c0,1.554,1.23,2.816,2.752,2.816h73.191C181.794,251.295,183.024,250.033,183.024,248.479z M183.024,225.593v-0.647
								c0-1.521-1.23-2.784-2.752-2.784h-73.191c-1.521,0-2.752,1.262-2.752,2.784v0.647c0,1.554,1.23,2.816,2.752,2.816h73.191
								C181.794,228.409,183.024,227.147,183.024,225.593z M155.089,268.646v-0.712h-20.62v0.712c0,2.687,2.201,4.888,4.856,4.888
								h10.909C152.919,273.534,155.089,271.333,155.089,268.646z"/>
						</g>
					</g>
					<g>
						<g>
							<path style="fill:#C5CBCF;" d="M180.273,251.295h-73.191c-1.521,0-2.752-1.262-2.752-2.816v-0.647
								c0-1.521,1.23-2.784,2.752-2.784h73.191c1.521,0,2.752,1.262,2.752,2.784v0.647
								C183.024,250.033,181.794,251.295,180.273,251.295z"/>
						</g>
					</g>
					<g>
						<g>
							<path style="fill:#EAEEEF;" d="M180.273,228.409h-73.191c-1.521,0-2.752-1.262-2.752-2.816v-0.647
								c0-1.521,1.23-2.784,2.752-2.784h73.191c1.521,0,2.752,1.262,2.752,2.784v0.647
								C183.024,227.147,181.794,228.409,180.273,228.409z"/>
						</g>
					</g>
					<g>
						<g>
							<path style="fill:#C5CBCF;" d="M155.089,267.934v0.712c0,2.687-2.169,4.888-4.856,4.888h-10.909
								c-2.654,0-4.856-2.201-4.856-4.888v-0.712H155.089z"/>
						</g>
					</g>
				</g>
			</g>
		</g>
		<g>
			<g>
				<g>
					<path style="fill:#F2CE75;" d="M105.852,165.836c2.557,1.489,4.143,4.241,4.143,7.219v29.101h28.422v-55.937
						c0-2.201,0.874-4.338,2.395-5.891l1.47-1.486c-29.121-0.667-53.862-8.685-71.999-17.076
						C76.336,140.085,88.841,155.937,105.852,165.836z"/>
				</g>
			</g>
			<g>
				<g>
					<path style="fill:#F2CE75;" d="M166.725,137.648l-11.864,12.003v52.506h23.469v-28.001c0-3.075,1.651-5.892,4.305-7.316
						c17.668-9.708,30.694-25.615,37.042-44.232C201.182,130.944,183.417,135.621,166.725,137.648z"/>
				</g>
			</g>
		</g>
	</g>
</g>
<g>
</g>
<g>
</g>
<g>
</g>
<g>
</g>
<g>
</g>
<g>
</g>
<g>
</g>
<g>
</g>
<g>
</g>
<g>
</g>
<g>
</g>
<g>
</g>
<g>
</g>
<g>
</g>
<g>
</g>
</svg>
