<?xml version="1.0" encoding="iso-8859-1"?>
<!-- Generator: Adobe Illustrator 19.0.0, SVG Export Plug-In . SVG Version: 6.00 Build 0)  -->
<svg version="1.1" id="Layer_1" xmlns="http://www.w3.org/2000/svg" xmlns:xlink="http://www.w3.org/1999/xlink" x="0px" y="0px"
	 viewBox="0 0 292.448 292.448" style="enable-background:new 0 0 292.448 292.448;" xml:space="preserve">
<g>
	<g>
		<g>
			<g id="XMLID_10_">
				<g>
					<g>
						<g>
							<path style="fill:#2D213F;" d="M245.279,99.055c0,29.911-13.369,56.746-34.41,74.939V284.12c0,3.302-1.975,6.312-5.017,7.64
								c-1.068,0.453-2.201,0.68-3.334,0.68c-2.072,0-4.111-0.777-5.665-2.234l-48.751-45.319L95.37,290.433
								c-2.46,2.104-5.956,2.622-8.934,1.262c-2.946-1.36-4.856-4.338-4.856-7.575V173.994
								c-21.041-18.192-34.41-45.028-34.41-74.939C47.17,44.413,91.615,0,146.224,0S245.279,44.413,245.279,99.055z M228.576,99.055
								c0-45.416-36.935-82.384-82.352-82.384S63.841,53.639,63.841,99.055s36.968,82.352,82.384,82.352
								S228.576,144.471,228.576,99.055z M194.166,264.956V185.68c-14.211,7.898-30.558,12.398-47.941,12.398
								s-33.763-4.5-47.974-12.398v80.215l44.607-38.521c3.205-2.784,7.996-2.719,11.136,0.194L194.166,264.956z"/>
						</g>
					</g>
					<g>
						<g>
							<path style="fill:#505967;" d="M146.224,16.671c45.416,0,82.352,36.968,82.352,82.384s-36.935,82.352-82.352,82.352
								s-82.383-36.936-82.383-82.352S100.808,16.671,146.224,16.671z M223.364,99.055c0-42.568-34.604-77.172-77.14-77.172
								S69.052,56.487,69.052,99.055c0,42.535,34.637,77.14,77.172,77.14S223.364,141.59,223.364,99.055z"/>
						</g>
					</g>
					<g>
						<g>
							<path style="fill:#2D213F;" d="M146.224,21.883c42.535,0,77.14,34.604,77.14,77.172c0,42.535-34.604,77.14-77.14,77.14
								s-77.172-34.604-77.172-77.14C69.052,56.487,103.689,21.883,146.224,21.883z M206.693,99.055
								c0-33.342-27.127-60.469-60.469-60.469S85.756,65.713,85.756,99.055s27.127,60.469,60.469,60.469
								S206.693,132.397,206.693,99.055z"/>
						</g>
					</g>
					<g>
						<g>
							<path style="fill:#505967;" d="M194.166,185.679v79.276l-40.172-37.388c-3.14-2.913-7.931-2.978-11.136-0.194l-44.607,38.522
								V185.68c14.211,7.898,30.59,12.398,47.974,12.398S179.955,193.578,194.166,185.679z"/>
						</g>
					</g>
					<g>
						<g>
							<path style="fill:#EAEEEF;" d="M146.224,38.586c33.342,0,60.469,27.127,60.469,60.469s-27.127,60.469-60.469,60.469
								s-60.469-27.127-60.469-60.469S112.882,38.586,146.224,38.586z M156.033,128.221V65.066L129.036,67.3v11.038h12.528v49.884
								h14.469V128.221z"/>
						</g>
					</g>
					<g>
						<g>
							<polygon style="fill:#2D213F;" points="156.033,65.066 156.033,128.221 141.563,128.221 141.563,78.338 129.036,78.338 
								129.036,67.299 							"/>
						</g>
					</g>
				</g>
			</g>
		</g>
		<g>
			<path style="fill:#C5CBCF;" d="M146.224,38.586c-4.545,0-8.957,0.544-13.217,1.502c31.138,7.607,60.851,27.052,72.491,70.912
				c0.777-3.865,1.194-7.856,1.194-11.945C206.693,65.713,179.567,38.586,146.224,38.586z"/>
		</g>
	</g>
</g>
<g>
</g>
<g>
</g>
<g>
</g>
<g>
</g>
<g>
</g>
<g>
</g>
<g>
</g>
<g>
</g>
<g>
</g>
<g>
</g>
<g>
</g>
<g>
</g>
<g>
</g>
<g>
</g>
<g>
</g>
</svg>
