<?xml version="1.0" encoding="iso-8859-1"?>
<!-- Generator: Adobe Illustrator 19.0.0, SVG Export Plug-In . SVG Version: 6.00 Build 0)  -->
<svg version="1.1" id="Layer_1" xmlns="http://www.w3.org/2000/svg" xmlns:xlink="http://www.w3.org/1999/xlink" x="0px" y="0px"
	 viewBox="0 0 294.38 294.38" style="enable-background:new 0 0 294.38 294.38;" xml:space="preserve">
<g>
	<g>
		<g>
			<g id="XMLID_35_">
				<g>
					<path style="fill:#F2CE75;" d="M144.794,266.833v10.941H24.277v-27.709h106.824
						C134.953,256.248,139.55,261.881,144.794,266.833z"/>
					<path style="fill:#F2CE75;" d="M122.652,232.067H24.277v-27.709h94.199c-0.032,0.486-0.097,0.939-0.097,1.424
						C118.379,214.975,119.933,223.78,122.652,232.067z"/>
					<path style="fill:#F2CE75;" d="M24.277,157.938h109.122c-5.989,8.675-10.391,18.484-12.819,29.101H24.277V157.938z"/>
					<rect x="24.277" y="110.838" style="fill:#F2CE75;" width="120.517" height="29.101"/>
					<path style="fill:#F2CE75;" d="M210.442,187.589h14.081l0.097-0.227c0.065-5.212-1.424-9.452-4.435-12.754
						c-3.043-3.269-7.219-5.276-12.56-5.989v-9.129h-6.701v8.999c-5.633,0.453-10.1,2.234-13.402,5.341s-4.953,7.089-4.953,11.945
						c0,5.406,1.586,9.517,4.759,12.366c3.172,2.849,8.157,5.471,14.955,7.834c3.075,1.295,5.147,2.525,6.248,3.69
						c1.068,1.198,1.619,2.913,1.619,5.179c0,1.975-0.518,3.528-1.586,4.694c-1.068,1.198-2.784,1.78-5.147,1.78
						c-2.654,0-4.791-0.68-6.377-2.072c-1.554-1.392-2.363-3.723-2.363-6.992H180.66l-0.065,0.259
						c-0.162,6.183,1.619,10.877,5.309,14.017c3.69,3.172,8.416,5.018,14.146,5.503v8.546h6.798v-8.546
						c5.471-0.518,9.776-2.298,12.948-5.309c3.14-3.01,4.726-6.992,4.726-11.977c0-5.341-1.651-9.582-4.92-12.657
						c-3.302-3.043-8.222-5.633-14.761-7.737c-3.172-1.521-5.276-2.816-6.28-3.949c-1.068-1.133-1.586-2.622-1.586-4.532
						c0-2.007,0.486-3.626,1.457-4.856c0.971-1.198,2.622-1.78,4.953-1.78c2.234,0,3.982,0.68,5.212,2.039
						C209.827,182.637,210.442,184.741,210.442,187.589z M202.544,138.256c37.259,0,67.558,30.299,67.558,67.526
						c0,37.259-30.299,67.558-67.558,67.558c-37.227,0-67.526-30.299-67.526-67.558
						C135.018,168.555,165.317,138.256,202.544,138.256z"/>
					<rect x="65.841" y="65.13" style="fill:#F2CE75;" width="120.517" height="29.069"/>
					<rect x="24.277" y="16.639" style="fill:#F2CE75;" width="120.517" height="29.101"/>
					<path style="fill:#FEDE94;" d="M24.277,32.018c2.936,2.292,6.584,3.713,10.598,3.713h92.636c5.83,0,10.559-4.726,10.559-10.559
						v-1.965c0-3.211-2.25-5.888-5.254-6.571H24.277V32.018z"/>
					<path style="fill:#FEDE94;" d="M65.932,80.341c2.936,2.292,6.584,3.713,10.598,3.713h92.639c5.83,0,10.559-4.726,10.559-10.559
						V71.53c0-3.211-2.247-5.888-5.254-6.571H65.935v15.383L65.932,80.341L65.932,80.341z"/>
					<path style="fill:#FEDE94;" d="M24.31,126.496c2.936,2.292,6.584,3.713,10.598,3.713h92.636
						c5.833,0,10.559-4.726,10.559-10.559v-1.965c0-3.211-2.247-5.888-5.254-6.568H24.31V126.496z"/>
					<path style="fill:#FEDE94;" d="M133.396,157.941c-0.003,0-0.006-0.003-0.013-0.003H24.31v15.208
						c2.936,2.292,6.584,3.713,10.598,3.713h88.709C126.09,170.112,129.376,163.768,133.396,157.941z"/>
					<path style="fill:#FEDE94;" d="M24.31,204.357v15.065c2.936,2.292,6.584,3.713,10.598,3.713h85.388
						c-1.204-5.603-1.916-11.388-1.916-17.354c0-0.486,0.065-0.939,0.097-1.424H24.31z"/>
					<path style="fill:#FEDE94;" d="M131.27,250.318H24.31v15.379c2.936,2.292,6.584,3.713,10.598,3.713h92.636
						c5.574,0,10.093-4.334,10.482-9.812C135.581,256.669,133.315,253.577,131.27,250.318z"/>
					<path style="fill:#2D213F;" d="M202.544,121.617c46.42,0,84.164,37.777,84.164,84.164c0,46.42-37.744,84.164-84.164,84.164
						c-14.923,0-28.94-3.949-41.111-10.812v6.96c0,4.564-3.723,8.287-8.319,8.287H15.958c-4.564,0-8.287-3.723-8.287-8.287v-90.056
						c0-0.129,0-0.227,0.032-0.356c-0.032-0.097-0.032-0.227-0.032-0.356v-45.708c0-0.227,0.032-0.453,0.065-0.68
						c-0.032-0.227-0.065-0.453-0.065-0.712v-45.708c0-4.597,3.723-8.319,8.287-8.319h33.245V62.346H15.958
						c-4.564,0-8.287-3.723-8.287-8.319V8.319C7.671,3.723,11.394,0,15.958,0h137.155c4.597,0,8.319,3.723,8.319,8.319v40.172
						h33.245c4.597,0,8.319,3.723,8.319,8.319v45.708c0,4.597-3.723,8.319-8.319,8.319h-33.245v21.591
						C173.604,125.599,187.621,121.617,202.544,121.617z M270.102,205.782c0-37.227-30.299-67.526-67.558-67.526
						c-37.227,0-67.526,30.299-67.526,67.526c0,37.259,30.299,67.558,67.526,67.558C239.803,273.34,270.102,243.041,270.102,205.782
						z M186.358,94.199V65.13H65.841v29.069H186.358z M144.794,277.775v-10.941c-5.244-4.953-9.841-10.585-13.693-16.768H24.277
						v27.709L144.794,277.775L144.794,277.775z M144.794,139.939v-29.101H24.277v29.101H144.794z M144.794,45.74V16.639H24.277
						V45.74H144.794z M133.399,157.938H24.277v29.101h96.303C123.008,176.421,127.411,166.613,133.399,157.938z M24.277,232.067
						h98.375c-2.719-8.287-4.273-17.092-4.273-26.285c0-0.486,0.065-0.939,0.097-1.424H24.277V232.067z"/>
					<path style="fill:#2D213F;" d="M206.85,232.035v8.546h-6.798v-8.546c-5.73-0.486-10.456-2.331-14.146-5.503
						c-3.69-3.14-5.471-7.834-5.309-14.017l0.065-0.259h14.017c0,3.269,0.809,5.6,2.363,6.992c1.586,1.392,3.723,2.072,6.377,2.072
						c2.363,0,4.079-0.583,5.147-1.78c1.068-1.165,1.586-2.719,1.586-4.694c0-2.266-0.55-3.982-1.619-5.179
						c-1.101-1.165-3.172-2.395-6.248-3.69c-6.798-2.363-11.783-4.985-14.955-7.834s-4.759-6.96-4.759-12.366
						c0-4.856,1.651-8.837,4.953-11.945s7.769-4.888,13.402-5.341v-8.999h6.701v9.129c5.341,0.712,9.517,2.719,12.56,5.989
						c3.01,3.302,4.5,7.542,4.435,12.754l-0.097,0.227h-14.081c0-2.849-0.615-4.953-1.845-6.312c-1.23-1.36-2.978-2.039-5.212-2.039
						c-2.331,0-3.982,0.583-4.953,1.78c-0.971,1.23-1.457,2.849-1.457,4.856c0,1.91,0.518,3.399,1.586,4.532
						c1.003,1.133,3.108,2.428,6.28,3.949c6.539,2.104,11.459,4.694,14.761,7.737c3.269,3.075,4.92,7.316,4.92,12.657
						c0,4.985-1.586,8.967-4.726,11.977C216.626,229.736,212.32,231.517,206.85,232.035z"/>
				</g>
			</g>
		</g>
		<path style="fill:#FEDE94;" d="M269.428,196.783c-4.425-32.979-32.688-58.527-66.885-58.527c-14.412,0-27.758,4.58-38.735,12.307
			C195.794,149.673,238.993,159.255,269.428,196.783z"/>
	</g>
</g>
<g>
</g>
<g>
</g>
<g>
</g>
<g>
</g>
<g>
</g>
<g>
</g>
<g>
</g>
<g>
</g>
<g>
</g>
<g>
</g>
<g>
</g>
<g>
</g>
<g>
</g>
<g>
</g>
<g>
</g>
</svg>
