<?xml version="1.0" encoding="iso-8859-1"?>
<!-- Generator: Adobe Illustrator 19.0.0, SVG Export Plug-In . SVG Version: 6.00 Build 0)  -->
<svg version="1.1" id="Layer_1" xmlns="http://www.w3.org/2000/svg" xmlns:xlink="http://www.w3.org/1999/xlink" x="0px" y="0px"
	 viewBox="0 0 275.347 275.347" style="enable-background:new 0 0 275.347 275.347;" xml:space="preserve">
<g>
	<g>
		<g>
			<g id="XMLID_5_">
				<g>
					<g>
						<path style="fill:#C5CBCF;" d="M258.676,81.704v134.145h-0.065c0.032,0.291,0.065,0.583,0.065,0.874
							c0,16.283-13.11,29.555-29.328,29.878h-1.068c-15.862-0.259-28.745-12.948-29.328-28.745V81.704H258.676z"/>
					</g>
					<g>
						<rect x="46.744" y="57.717" style="fill:#AAE1E9;" width="40.496" height="31.982"/>
					</g>
					<g>
						<path style="fill:#2D213F;" d="M258.676,215.849V81.704h-59.724v136.152c0.583,15.797,13.466,28.486,29.328,28.745
							c0.162,0,0.324,0.032,0.486,0.032c0.194,0,0.388-0.032,0.583-0.032c16.218-0.324,29.328-13.596,29.328-29.878
							c0-0.291-0.032-0.583-0.065-0.874L258.676,215.849L258.676,215.849z M275.347,73.385v143.338
							c0,22.951-16.671,42.017-38.554,45.837c-2.428,0.421-4.92,0.68-7.445,0.712h-1.068L8.384,264.179H8.352
							c-2.201,0-4.338-0.874-5.892-2.46C0.874,260.133,0,257.996,0,255.795l1.36-236.34c0.032-4.597,3.755-8.287,8.352-8.287H190.6
							c4.597,0,8.352,3.723,8.352,8.352v45.513h68.044C271.624,65.033,275.347,68.756,275.347,73.385z M16.736,247.443
							l176.486-0.712c-6.442-7.607-10.423-17.318-10.909-27.904c-0.032-0.324-0.032-0.647-0.065-0.971v-2.007v-24.667V159.2v-31.95
							V27.839H17.998l-0.55,98.505l-0.194,32.824L17.06,191.15L16.736,247.443z"/>
					</g>
					<g>
						<path style="fill:#C5CBCF;" d="M229.348,246.601c-0.194,0-0.388,0.032-0.583,0.032c-0.162,0-0.324-0.032-0.486-0.032H229.348z
							"/>
					</g>
					<g>
						<path style="fill:#2D213F;" d="M228.28,263.272h1.068c-0.194,0-0.388,0.032-0.583,0.032
							C228.603,263.305,228.441,263.272,228.28,263.272z"/>
					</g>
					<g>
						<path style="fill:#2D213F;" d="M164.315,118.898c4.597,0,8.319,3.723,8.319,8.352c0,4.597-3.723,8.319-8.319,8.319H33.633
							c-4.597,0-8.352-3.723-8.352-8.319c0-0.291,0-0.583,0.032-0.874c0.453-4.208,4.014-7.478,8.319-7.478
							C33.633,118.898,164.315,118.898,164.315,118.898z"/>
					</g>
					<g>
						<path style="fill:#2D213F;" d="M164.315,150.881c4.597,0,8.319,3.723,8.319,8.319c0,4.629-3.723,8.352-8.319,8.352H33.633
							c-4.597,0-8.352-3.723-8.352-8.352c0-4.597,3.755-8.319,8.352-8.319H164.315z"/>
					</g>
					<g>
						<path style="fill:#2D213F;" d="M164.315,182.831c4.597,0,8.319,3.755,8.319,8.352s-3.723,8.352-8.319,8.352H33.633
							c-4.597,0-8.352-3.755-8.352-8.352s3.755-8.352,8.352-8.352H164.315z"/>
					</g>
					<g>
						<path style="fill:#2D213F;" d="M164.315,214.813c4.597,0,8.319,3.755,8.319,8.352s-3.723,8.352-8.319,8.352H33.633
							c-4.597,0-8.352-3.755-8.352-8.352s3.755-8.352,8.352-8.352H164.315z"/>
					</g>
					<g>
						<path style="fill:#2D213F;" d="M103.911,49.398v48.653c0,4.597-3.723,8.352-8.319,8.352H38.424
							c-4.629,0-8.352-3.755-8.352-8.352V49.398c0-4.597,3.723-8.352,8.352-8.352h57.167
							C100.188,41.046,103.911,44.801,103.911,49.398z M87.24,89.7V57.717H46.744V89.7H87.24z"/>
					</g>
					<g>
						<path style="fill:#EAEEEF;" d="M182.313,218.827c-0.032-0.324-0.032-0.647-0.065-0.971v-2.007v-24.667V159.2v-31.95V27.839
							H17.998l-0.55,98.505l-0.194,32.824L17.06,191.15l-0.324,56.293l176.486-0.712
							C186.78,239.124,182.798,229.413,182.313,218.827z M30.073,49.398c0-4.597,3.723-8.352,8.352-8.352h57.167
							c4.597,0,8.319,3.755,8.319,8.352v48.653c0,4.597-3.723,8.352-8.319,8.352H38.424c-4.629,0-8.352-3.755-8.352-8.352V49.398
							H30.073z M33.633,118.898h130.681c4.597,0,8.319,3.723,8.319,8.352c0,4.597-3.723,8.319-8.319,8.319H33.633
							c-4.597,0-8.352-3.723-8.352-8.319c0-0.291,0-0.583,0.032-0.874C25.767,122.168,29.328,118.898,33.633,118.898z
							 M33.633,150.881h130.681c4.597,0,8.319,3.723,8.319,8.319c0,4.629-3.723,8.352-8.319,8.352H33.633
							c-4.597,0-8.352-3.723-8.352-8.352C25.282,154.603,29.037,150.881,33.633,150.881z M164.315,231.517H33.633
							c-4.597,0-8.352-3.755-8.352-8.352s3.755-8.352,8.352-8.352h130.681c4.597,0,8.319,3.755,8.319,8.352
							C172.634,227.762,168.911,231.517,164.315,231.517z M164.315,199.534H33.633c-4.597,0-8.352-3.755-8.352-8.352
							s3.755-8.352,8.352-8.352h130.681c4.597,0,8.319,3.755,8.319,8.352C172.634,195.779,168.911,199.534,164.315,199.534z"/>
					</g>
				</g>
			</g>
		</g>
		<g>
			<path style="fill:#B5B9BA;" d="M220.87,81.704h-21.918v136.152c0.489,13.243,9.634,24.268,21.918,27.651V81.704z"/>
		</g>
		<g>
			<path style="fill:#C5CBCF;" d="M182.313,218.827c-0.032-0.324-0.032-0.647-0.065-0.971v-2.007v-24.667V159.2v-31.95V27.839
				h-14.366v91.891c2.803,1.34,4.752,4.182,4.752,7.52c0,3.315-1.949,6.147-4.752,7.487v16.975c2.803,1.337,4.752,4.173,4.752,7.487
				c0,3.337-1.949,6.18-4.752,7.52v16.949c2.803,1.347,4.752,4.199,4.752,7.513s-1.949,6.167-4.752,7.513v1.496
				c0,5.186-0.991,10.129-2.716,14.709c4.189,0.437,7.468,3.959,7.468,8.264c0,4.597-3.723,8.352-8.319,8.352h-10.647
				c-7.351,6.468-16.972,10.423-27.535,10.423H16.768l-0.032,5.503l176.486-0.712C186.78,239.124,182.798,229.413,182.313,218.827z"
				/>
		</g>
		<g>
			<path style="fill:#92C1CA;" d="M85.602,89.7h1.638V57.717H46.744v0.596C67.506,61.78,81.079,71.685,85.602,89.7z"/>
		</g>
	</g>
</g>
<g>
</g>
<g>
</g>
<g>
</g>
<g>
</g>
<g>
</g>
<g>
</g>
<g>
</g>
<g>
</g>
<g>
</g>
<g>
</g>
<g>
</g>
<g>
</g>
<g>
</g>
<g>
</g>
<g>
</g>
</svg>
