<?xml version="1.0" encoding="iso-8859-1"?>
<!-- Generator: Adobe Illustrator 19.0.0, SVG Export Plug-In . SVG Version: 6.00 Build 0)  -->
<svg version="1.1" id="Layer_1" xmlns="http://www.w3.org/2000/svg" xmlns:xlink="http://www.w3.org/1999/xlink" x="0px" y="0px"
	 viewBox="0 0 265.316 265.316" style="enable-background:new 0 0 265.316 265.316;" xml:space="preserve">
<g>
	<g>
		<g id="XMLID_13_">
			<g>
				<g>
					<g>
						<path style="fill:#505967;" d="M220.095,63.488c-5.762,9.808-11.912,20.297-18.063,30.817
							c-27.709,47.359-39.913,68.562-45.06,78.823l-43.442,52.765v-60.048c1.36-1.133,2.784-2.395,4.273-3.755
							c4.079-3.69,9.97-9.193,17.48-16.347c12.625-12.01,30.04-28.842,51.858-50.045C198.439,84.658,209.801,73.587,220.095,63.488z
							"/>
					</g>
				</g>
				<g>
					<g>
						<path style="fill:#EAEEEF;" d="M248.646,47.432l-1.554,159.459c-26.997-10.488-59.66-23.178-74.194-28.907
							C184.001,157.428,219.415,96.894,248.646,47.432z"/>
					</g>
				</g>
				<g>
					<g>
						<path style="fill:#EAEEEF;" d="M33.088,136.678l180.306-89.635c-46.485,45.546-97.21,94.75-109.705,105.626
							C95.499,150.371,76.951,146.066,33.088,136.678z"/>
					</g>
				</g>
				<g>
					<g>
						<path style="fill:#2D213F;" d="M252.595,9.137c2.622-1.327,5.697-1.068,8.06,0.486c2.816,1.36,4.694,4.176,4.661,7.413
							l-1.975,201.93c-0.032,2.687-1.36,5.212-3.593,6.733c-1.36,0.971-2.978,1.457-4.597,1.457c-0.971,0-1.975-0.194-2.913-0.55
							c-34.831-13.499-75.489-29.296-89.311-34.831l-51.275,62.282c-1.586,1.91-3.917,2.978-6.312,2.978
							c-0.939,0-1.878-0.162-2.784-0.486c-3.237-1.198-5.406-4.305-5.406-7.801v-80.83c-15.441-3.852-61.213-13.758-90.639-19.973
							c-3.431-0.745-6.021-3.561-6.442-7.057c-0.453-3.496,1.36-6.895,4.5-8.449L252.595,9.137z M103.689,152.669
							c12.495-10.877,63.22-60.08,109.705-105.626L33.088,136.678C76.951,146.066,95.499,150.371,103.689,152.669z M106.635,153.543
							c1.036,0.324,1.78,0.615,2.363,0.842C108.221,153.932,107.412,153.641,106.635,153.543z M247.092,206.891l1.554-159.459
							c-29.231,49.462-64.645,109.996-75.748,130.551C187.433,183.713,220.095,196.403,247.092,206.891z M202.032,94.305
							c6.15-10.521,12.301-21.009,18.063-30.817c-10.294,10.1-21.656,21.171-32.954,32.209
							c-21.818,21.203-39.234,38.036-51.858,50.045c-7.51,7.154-13.402,12.657-17.48,16.347c-1.489,1.36-2.913,2.622-4.273,3.755
							v60.048l43.442-52.765C162.119,162.866,174.323,141.663,202.032,94.305z"/>
					</g>
				</g>
			</g>
		</g>
		<g>
			<g>
				<path style="fill:#454D5B;" d="M212.854,75.827L113.53,223.293v2.599l43.442-52.765c5.147-10.262,17.351-31.465,45.06-78.823
					C205.67,88.083,209.296,81.89,212.854,75.827z"/>
			</g>
		</g>
	</g>
</g>
<g>
</g>
<g>
</g>
<g>
</g>
<g>
</g>
<g>
</g>
<g>
</g>
<g>
</g>
<g>
</g>
<g>
</g>
<g>
</g>
<g>
</g>
<g>
</g>
<g>
</g>
<g>
</g>
<g>
</g>
</svg>
