<?xml version="1.0" encoding="iso-8859-1"?>
<!-- Generator: Adobe Illustrator 19.0.0, SVG Export Plug-In . SVG Version: 6.00 Build 0)  -->
<svg version="1.1" id="Layer_1" xmlns="http://www.w3.org/2000/svg" xmlns:xlink="http://www.w3.org/1999/xlink" x="0px" y="0px"
	 viewBox="0 0 271.528 271.528" style="enable-background:new 0 0 271.528 271.528;" xml:space="preserve">
<g>
	<g>
		<g id="XMLID_19_">
			<g>
				<path style="fill:#EAEEEF;" d="M190.956,30.234l-46.873,76.169V16.962C160.916,18.128,176.777,22.789,190.956,30.234z"/>
				<path style="fill:#AAE1E9;" d="M254.597,127.444H150.654l54.448-88.47C233.103,59.109,252.072,91.027,254.597,127.444z"/>
				<path style="fill:#454D5B;" d="M135.764,144.083h118.834c-4.305,61.828-55.937,110.838-118.834,110.838
					c-65.681,0-119.125-53.444-119.125-119.157c0-62.897,49.01-114.528,110.806-118.801v118.801
					C127.444,140.36,131.167,144.083,135.764,144.083z"/>
				<path style="fill:#505967;" d="M63.457,41.215c-15.334,20.044-24.469,45.067-24.469,72.2
					c0,65.713,53.444,119.157,119.125,119.157c27.133,0,52.159-9.138,72.207-24.472c13.8-18.011,22.608-40.04,24.278-64.013H135.764
					c-4.597,0-8.319-3.723-8.319-8.319V16.962C103.483,18.62,81.461,27.418,63.457,41.215z"/>
				<path style="fill:#2D213F;" d="M135.764,0c74.874,0,135.764,60.922,135.764,135.764c0,74.874-60.89,135.764-135.764,135.764
					C60.922,271.527,0,210.637,0,135.764C0,60.922,60.922,0,135.764,0z M150.654,127.444h103.943
					c-2.525-36.417-21.494-68.335-49.495-88.47L150.654,127.444z M254.597,144.083H135.764c-4.597,0-8.319-3.723-8.319-8.319V16.962
					C65.648,21.235,16.639,72.867,16.639,135.764c0,65.713,53.444,119.157,119.125,119.157
					C198.66,254.921,250.292,205.911,254.597,144.083z M144.083,106.403l46.873-76.169c-14.178-7.445-30.04-12.107-46.873-13.272
					C144.083,16.962,144.083,106.403,144.083,106.403z"/>
			</g>
		</g>
		<path style="fill:#92C1CA;" d="M251.797,108.915c-16.079,2.878-79.021,14.169-101.088,18.438l-0.055,0.091h103.943
			C254.157,121.116,253.192,114.933,251.797,108.915z"/>
		<path style="fill:#C5CBCF;" d="M146.546,102.402l44.41-72.168c-1.094-0.576-2.217-1.101-3.331-1.641L146.546,102.402z"/>
	</g>
</g>
<g>
</g>
<g>
</g>
<g>
</g>
<g>
</g>
<g>
</g>
<g>
</g>
<g>
</g>
<g>
</g>
<g>
</g>
<g>
</g>
<g>
</g>
<g>
</g>
<g>
</g>
<g>
</g>
<g>
</g>
</svg>
