<?xml version="1.0" encoding="iso-8859-1"?>
<!-- Generator: Adobe Illustrator 19.0.0, SVG Export Plug-In . SVG Version: 6.00 Build 0)  -->
<svg version="1.1" id="Layer_1" xmlns="http://www.w3.org/2000/svg" xmlns:xlink="http://www.w3.org/1999/xlink" x="0px" y="0px"
	 viewBox="0 0 283.258 283.258" style="enable-background:new 0 0 283.258 283.258;" xml:space="preserve">
<g>
	<g>
		<g id="XMLID_5_">
			<g>
				<path style="fill:#C5CBCF;" d="M266.652,20.691v162.275H250.79V44.84c0-4.564-3.723-8.287-8.287-8.287H49.961V20.691H266.652z"
					/>
				<path style="fill:#2D213F;" d="M283.258,12.372v178.882c0,4.597-3.723,8.319-8.287,8.319H250.79v24.149
					c0,4.597-3.723,8.319-8.287,8.319H59.705c-13.919,13.919-43.409,43.409-44.672,44.672c-1.586,1.586-3.787,2.46-5.989,2.46
					c-1.133,0-2.234-0.227-3.302-0.68c-6.021-2.622-6.636-2.881-4.888-55.031V44.84c0-4.564,3.723-8.287,8.319-8.287h24.149V12.372
					c0-4.564,3.723-8.287,8.319-8.287H274.97C279.536,4.085,283.258,7.807,283.258,12.372z M266.652,182.966V20.691H49.961v15.862
					h192.542c4.564,0,8.287,3.723,8.287,8.287v138.127C250.79,182.966,266.652,182.966,266.652,182.966z M234.184,215.434V53.159
					H17.493v170.562c-0.324,9.452-0.583,19.487-0.68,27.709c11.071-11.071,26.059-26.059,33.569-33.569
					c1.554-1.554,3.69-2.428,5.892-2.428C56.274,215.434,234.184,215.434,234.184,215.434z"/>
				<path style="fill:#2D213F;" d="M191.843,80.707c4.597,0,8.319,3.723,8.319,8.287c0,4.597-3.723,8.319-8.319,8.319H57.471
					c-4.597,0-8.319-3.723-8.319-8.319c0-4.564,3.723-8.287,8.319-8.287H191.843z"/>
				<path style="fill:#2D213F;" d="M191.843,125.379c4.597,0,8.319,3.723,8.319,8.319c0,4.564-3.723,8.287-8.319,8.287H57.471
					c-4.597,0-8.319-3.723-8.319-8.287c0-4.597,3.723-8.319,8.319-8.319H191.843z"/>
				<path style="fill:#2D213F;" d="M191.843,173.158c4.597,0,8.319,3.723,8.319,8.319s-3.723,8.319-8.319,8.319H57.471
					c-4.597,0-8.319-3.723-8.319-8.319s3.723-8.319,8.319-8.319H191.843z"/>
				<path style="fill:#C5CBCF;" d="M57.471,189.797h134.372c4.597,0,8.319-3.723,8.319-8.319s-3.723-8.319-8.319-8.319H57.471
					c-4.597,0-8.319,3.723-8.319,8.319C49.152,186.074,52.875,189.797,57.471,189.797z M57.471,141.985h134.372
					c4.597,0,8.319-3.723,8.319-8.287c0-4.597-3.723-8.319-8.319-8.319H57.471c-4.597,0-8.319,3.723-8.319,8.319
					C49.152,138.262,52.875,141.985,57.471,141.985z M57.471,97.313h134.372c4.597,0,8.319-3.723,8.319-8.319
					c0-4.564-3.723-8.287-8.319-8.287H57.471c-4.597,0-8.319,3.723-8.319,8.287C49.152,93.59,52.875,97.313,57.471,97.313z
					 M234.184,53.159v162.275H56.274c-2.201,0-4.338,0.874-5.892,2.428c-7.51,7.51-22.498,22.498-33.569,33.569
					c0.097-8.222,0.356-18.257,0.68-27.709V53.159C17.493,53.159,234.184,53.159,234.184,53.159z"/>
				<path style="fill:#EAEEEF;" d="M187.201,70.406H38.266c-7.468,0-14.502,1.787-20.776,4.885v148.43
					c-0.21,6.17-0.388,12.55-0.518,18.549l7.164-7.16c1.554-1.554,3.664-2.428,5.862-2.428h5.565
					c5.824-5.824,11.197-11.197,14.819-14.819c1.554-1.554,3.69-2.428,5.892-2.428h141.487c6.354-7.902,10.177-17.927,10.177-28.859
					V91.14C207.938,79.69,198.654,70.406,187.201,70.406z M191.843,189.797H57.471c-4.597,0-8.319-3.723-8.319-8.319
					s3.723-8.319,8.319-8.319h134.372c4.597,0,8.319,3.723,8.319,8.319S196.44,189.797,191.843,189.797z M191.843,141.985H57.471
					c-4.597,0-8.319-3.723-8.319-8.287c0-4.597,3.723-8.319,8.319-8.319h134.372c4.597,0,8.319,3.723,8.319,8.319
					C200.162,138.262,196.44,141.985,191.843,141.985z M191.843,97.313H57.471c-4.597,0-8.319-3.723-8.319-8.319
					c0-4.564,3.723-8.287,8.319-8.287h134.372c4.597,0,8.319,3.723,8.319,8.287C200.162,93.59,196.44,97.313,191.843,97.313z"/>
			</g>
		</g>
	</g>
</g>
<g>
</g>
<g>
</g>
<g>
</g>
<g>
</g>
<g>
</g>
<g>
</g>
<g>
</g>
<g>
</g>
<g>
</g>
<g>
</g>
<g>
</g>
<g>
</g>
<g>
</g>
<g>
</g>
<g>
</g>
</svg>
