<?xml version="1.0" encoding="iso-8859-1"?>
<!-- Generator: Adobe Illustrator 19.0.0, SVG Export Plug-In . SVG Version: 6.00 Build 0)  -->
<svg version="1.1" id="Layer_1" xmlns="http://www.w3.org/2000/svg" xmlns:xlink="http://www.w3.org/1999/xlink" x="0px" y="0px"
	 viewBox="0 0 300.271 300.271" style="enable-background:new 0 0 300.271 300.271;" xml:space="preserve">
<g>
	<g>
		<g>
			<g>
				<g>
					<path style="fill:#EAEEEF;" d="M247.442,16.671v187.686h-29.878v-22.951c0-4.597-3.755-8.319-8.352-8.319H90.346
						c-4.597,0-8.319,3.723-8.319,8.319v22.951H52.828V16.671H247.442z M227.016,61.149c0-11.2-9.129-20.297-20.329-20.297
						s-20.329,9.096-20.329,20.297c0,5.697,2.363,10.844,6.15,14.535l-23.954,39.363c-1.78-0.486-3.626-0.777-5.568-0.777
						c-1.457,0-2.881,0.162-4.241,0.453l-18.29-27.127c1.942-3.108,3.075-6.766,3.075-10.715c0-11.2-9.129-20.297-20.329-20.297
						s-20.329,9.096-20.329,20.297c0,5.665,2.363,10.812,6.086,14.502l-12.884,24.311c-0.712-0.065-1.424-0.129-2.136-0.129
						c-11.233,0-20.329,9.129-20.329,20.329s9.096,20.329,20.329,20.329c11.2,0,20.297-9.129,20.297-20.329
						c0-5.438-2.136-10.359-5.633-14.017l13.143-24.731c0.486,0.032,0.971,0.065,1.457,0.065c2.169,0,4.273-0.356,6.215-0.971
						l17.48,25.961c-2.654,3.431-4.241,7.704-4.241,12.398c0,11.2,9.129,20.297,20.329,20.297s20.329-9.096,20.329-20.297
						c0-4.176-1.262-8.028-3.431-11.265l25.508-41.92c0.421,0.032,0.874,0.065,1.295,0.065
						C217.888,81.478,227.016,72.381,227.016,61.149z"/>
				</g>
			</g>
			<g>
				<g>
					<path style="fill:#2D213F;" d="M264.113,8.352v204.357c0,4.597-3.723,8.319-8.319,8.319h-97.663v22.109l42.891,42.891
						c3.269,3.269,3.269,8.546,0,11.815c-1.619,1.619-3.755,2.428-5.892,2.428c-2.136,0-4.273-0.809-5.891-2.428l-39.46-39.46
						l-39.201,39.169c-1.619,1.651-3.755,2.46-5.892,2.46c-2.136,0-4.273-0.809-5.892-2.46c-3.269-3.237-3.269-8.514,0-11.783
						l42.665-42.632v-22.109H44.477c-4.597,0-8.319-3.723-8.319-8.319V8.352C36.157,3.723,39.88,0,44.477,0h211.317
						C260.391,0,264.113,3.723,264.113,8.352z M247.442,204.357V16.671H52.828v187.686h29.199v-22.951
						c0-4.597,3.723-8.319,8.319-8.319h118.866c4.597,0,8.352,3.723,8.352,8.319v22.951L247.442,204.357L247.442,204.357z
						 M200.86,204.357v-14.599H98.698v14.599H200.86z"/>
				</g>
			</g>
			<g id="XMLID_16_">
				<g>
					<g>
						<path style="fill:#AAE1E9;" d="M162.986,128.253c3.496,0,6.345,2.849,6.345,6.345s-2.849,6.312-6.345,6.312
							s-6.345-2.816-6.345-6.312C156.642,131.102,159.49,128.253,162.986,128.253z"/>
					</g>
					<g>
						<path style="fill:#AAE1E9;" d="M93.939,129.548c3.496,0,6.312,2.849,6.312,6.345s-2.816,6.345-6.312,6.345
							s-6.345-2.849-6.345-6.345C87.595,132.397,90.443,129.548,93.939,129.548z"/>
					</g>
					<g>
						<path style="fill:#AAE1E9;" d="M123.203,70.569c3.496,0,6.345,2.816,6.345,6.312c0,3.496-2.849,6.345-6.345,6.345
							s-6.345-2.849-6.345-6.345C116.858,73.385,119.707,70.569,123.203,70.569z"/>
					</g>
					<g>
						<path style="fill:#AAE1E9;" d="M206.687,54.836c3.496,0,6.345,2.816,6.345,6.312s-2.849,6.345-6.345,6.345
							s-6.345-2.849-6.345-6.345C200.342,57.653,203.191,54.836,206.687,54.836z"/>
					</g>
					<g>
						<path style="fill:#2D213F;" d="M206.687,40.852c11.2,0,20.329,9.096,20.329,20.297c0,11.233-9.129,20.329-20.329,20.329
							c-0.421,0-0.874-0.032-1.295-0.065l-25.508,41.92c2.169,3.237,3.431,7.089,3.431,11.265c0,11.2-9.129,20.297-20.329,20.297
							s-20.329-9.096-20.329-20.297c0-4.694,1.586-8.967,4.241-12.398l-17.48-25.961c-1.942,0.615-4.046,0.971-6.215,0.971
							c-0.486,0-0.971-0.032-1.457-0.065l-13.143,24.731c3.496,3.658,5.633,8.578,5.633,14.017c0,11.2-9.096,20.329-20.297,20.329
							c-11.233,0-20.329-9.129-20.329-20.329s9.096-20.329,20.329-20.329c0.712,0,1.424,0.065,2.136,0.129l12.884-24.311
							c-3.723-3.69-6.086-8.837-6.086-14.502c0-11.2,9.129-20.297,20.329-20.297s20.329,9.096,20.329,20.297
							c0,3.949-1.133,7.607-3.075,10.715l18.29,27.127c1.36-0.291,2.784-0.453,4.241-0.453c1.942,0,3.787,0.291,5.568,0.777
							l23.954-39.363c-3.787-3.69-6.15-8.837-6.15-14.535C186.358,49.948,195.487,40.852,206.687,40.852z M213.032,61.149
							c0-3.496-2.849-6.312-6.345-6.312s-6.345,2.816-6.345,6.312s2.849,6.345,6.345,6.345
							C210.183,67.493,213.032,64.645,213.032,61.149z M169.331,134.598c0-3.496-2.849-6.345-6.345-6.345s-6.345,2.849-6.345,6.345
							s2.849,6.312,6.345,6.312C166.483,140.911,169.331,138.094,169.331,134.598z M129.547,76.881c0-3.496-2.849-6.312-6.345-6.312
							s-6.345,2.816-6.345,6.312c0,3.496,2.849,6.345,6.345,6.345S129.547,80.377,129.547,76.881z M100.252,135.893
							c0-3.496-2.816-6.345-6.312-6.345s-6.345,2.849-6.345,6.345s2.849,6.345,6.345,6.345
							C97.435,142.238,100.252,139.389,100.252,135.893z"/>
					</g>
				</g>
			</g>
			<g>
				<g>
					<rect x="98.698" y="189.758" style="fill:#505967;" width="102.163" height="14.599"/>
				</g>
			</g>
		</g>
		<g>
			<path style="fill:#C5CBCF;" d="M181.292,143.367c-3.286,6.811-10.249,11.527-18.306,11.527c-7.685,0-14.392-4.283-17.849-10.592
				c-10.89-0.748-21.362-2.36-31.277-4.564c-1.8,9.368-10.035,16.483-19.921,16.483c-11.233,0-20.329-9.129-20.329-20.329
				c0-2.936,0.638-5.72,1.761-8.245c-8.345-3.389-15.904-6.963-22.543-10.414v87.123h29.199v-22.951
				c0-4.597,3.723-8.319,8.319-8.319h118.866c4.597,0,8.352,3.723,8.352,8.319v22.951h29.878v-82.581
				C224.967,134.116,202.654,140.726,181.292,143.367z"/>
		</g>
	</g>
</g>
<g>
</g>
<g>
</g>
<g>
</g>
<g>
</g>
<g>
</g>
<g>
</g>
<g>
</g>
<g>
</g>
<g>
</g>
<g>
</g>
<g>
</g>
<g>
</g>
<g>
</g>
<g>
</g>
<g>
</g>
</svg>
