<?xml version="1.0" encoding="iso-8859-1"?>
<!-- Generator: Adobe Illustrator 19.0.0, SVG Export Plug-In . SVG Version: 6.00 Build 0)  -->
<svg version="1.1" id="Layer_1" xmlns="http://www.w3.org/2000/svg" xmlns:xlink="http://www.w3.org/1999/xlink" x="0px" y="0px"
	 viewBox="0 0 275.25 275.25" style="enable-background:new 0 0 275.25 275.25;" xml:space="preserve">
<g>
	<g>
		<g id="XMLID_19_">
			<g>
				<g>
					<rect x="123.042" y="147.515" style="fill:#505967;" width="29.166" height="28.163"/>
				</g>
				<g>
					<path style="fill:#C5CBCF;" d="M258.579,147.515v106.338H16.671V147.515h89.667v36.482c0,4.629,3.755,8.352,8.352,8.352h45.87
						c4.597,0,8.352-3.723,8.352-8.352v-36.482H258.579z"/>
				</g>
				<g>
					<rect x="16.671" y="78.695" style="fill:#454D5B;" width="241.908" height="52.15"/>
				</g>
				<g>
					<path style="fill:#2D213F;" d="M275.25,70.374v191.83c0,4.597-3.723,8.352-8.352,8.352H8.352c-4.629,0-8.352-3.755-8.352-8.352
						V70.374c0-4.629,3.723-8.352,8.352-8.352h62.541v-49.01c0-4.597,3.755-8.319,8.352-8.319h116.762
						c4.629,0,8.352,3.723,8.352,8.319v49.01H266.9C271.527,62.023,275.25,65.745,275.25,70.374z M258.579,253.854V147.515h-89.667
						v36.482c0,4.629-3.755,8.352-8.352,8.352h-45.87c-4.597,0-8.352-3.723-8.352-8.352v-36.482H16.671v106.338L258.579,253.854
						L258.579,253.854z M258.579,130.844v-52.15H16.671v52.15H258.579z M187.686,62.023V21.365H87.596v40.658
						C87.596,62.024,187.686,62.024,187.686,62.023z M152.208,175.678v-28.163h-29.166v28.163H152.208z"/>
				</g>
			</g>
		</g>
		<g>
			<path style="fill:#EAEEEF;" d="M168.911,147.515v36.482c0,4.629-3.755,8.352-8.352,8.352h-45.87
				c-4.597,0-8.352-3.723-8.352-8.352v-36.482H16.671v76.538c6.846,6.937,16.351,11.242,26.868,11.242H203.71
				c15.331,0,27.758-12.427,27.758-27.758v-60.022H168.911z"/>
		</g>
		<g>
			<path style="fill:#505967;" d="M214.266,88.68H43.539c-10.517,0-20.021,4.305-26.868,11.242v30.921h214.797v-24.961
				C231.468,96.382,223.767,88.68,214.266,88.68z"/>
		</g>
	</g>
</g>
<g>
</g>
<g>
</g>
<g>
</g>
<g>
</g>
<g>
</g>
<g>
</g>
<g>
</g>
<g>
</g>
<g>
</g>
<g>
</g>
<g>
</g>
<g>
</g>
<g>
</g>
<g>
</g>
<g>
</g>
</svg>
