<?xml version="1.0" encoding="iso-8859-1"?>
<!-- Generator: Adobe Illustrator 19.0.0, SVG Export Plug-In . SVG Version: 6.00 Build 0)  -->
<svg version="1.1" id="Layer_1" xmlns="http://www.w3.org/2000/svg" xmlns:xlink="http://www.w3.org/1999/xlink" x="0px" y="0px"
	 viewBox="0 0 256.459 256.459" style="enable-background:new 0 0 256.459 256.459;" xml:space="preserve">
<g>
	<g>
		<path style="fill:#EAEEEF;" d="M178.219,103.364l-26.878,26.878c0.686,2.703,1.091,5.519,1.091,8.439
			c0,18.992-15.305,34.388-34.187,34.388s-34.187-15.396-34.187-34.388s15.305-34.388,34.187-34.388c3.8,0,7.423,0.696,10.831,1.855
			l26.46-26.46c-10.78-6.911-23.563-10.935-37.291-10.935c-38.395,0-69.52,31.306-69.52,69.928s31.125,69.928,69.52,69.928
			s69.52-31.306,69.52-69.928C187.765,125.787,184.269,113.732,178.219,103.364z"/>
		<path style="fill:#C5CBCF;" d="M132.592,207.099c-73.074-21.381-74.893-77.175-66.487-114.567
			c-10.786,12.32-17.38,28.441-17.38,46.145c0,38.618,31.125,69.928,69.52,69.928C123.166,208.605,127.963,208.077,132.592,207.099z
			"/>
		<g>
			<path style="fill:#F47C6D;" d="M177.083,104.205c5.885,10.135,9.313,21.889,9.313,34.475c0,37.858-30.513,68.549-68.15,68.549
				s-68.15-30.691-68.15-68.549s30.513-68.549,68.15-68.549c13.272,0,25.618,3.878,36.094,10.478l24.265-24.265
				c-16.885-12.544-37.757-19.97-60.359-19.97c-56.173,0-101.709,45.805-101.709,102.305c0,56.503,45.536,102.305,101.709,102.305
				S219.954,195.18,219.954,138.68c0-21.902-6.866-42.183-18.519-58.824L177.083,104.205z"/>
		</g>
		<g>
			<g id="XMLID_5_">
				<g>
					<path style="fill:#2D213F;" d="M256.459,26.285l-23.76,23.76l-19.293,4.759l-7.575,7.575l-28.033,28.033l-28.972,28.972
						c8.837,14.178,7.122,33.051-5.179,45.352c-14.34,14.34-37.583,14.34-51.923,0s-14.34-37.583,0-51.923
						c12.333-12.301,31.173-14.017,45.352-5.179l29.425-29.394l27.871-27.871l7.283-7.316l4.759-19.293L230.174,0v26.285H256.459z"
						/>
					<path style="fill:#2D213F;" d="M212.37,68.918c34.022,46.064,30.267,111.421-11.427,153.114
						c-45.902,45.902-120.614,45.902-166.516,0s-45.902-120.614,0-166.516C76.704,13.24,143.323,9.938,189.484,45.481
						l-11.945,11.912c-39.525-29.101-95.591-25.897-131.361,9.873c-39.428,39.428-39.428,103.587,0,143.015
						s103.587,39.428,143.015,0c35.187-35.187,38.748-89.926,11.168-129.354L212.37,68.918z"/>
					<path style="fill:#2D213F;" d="M184.337,96.951c19.131,30.461,15.7,71.151-10.812,97.663
						c-32.921,32.921-87.887,30.623-117.765-6.83c-22.854-28.681-22.563-70.407,0.647-98.828
						c26.609-32.565,72.381-37.647,105.205-15.603l-12.01,11.977c-23.922-14.276-55.387-11.233-76.007,9.355
						c-25.023,25.055-24.278,66.263,2.298,90.347c23.372,21.171,59.951,21.235,83.42,0.162
						c22.142-19.908,26.35-51.567,12.948-76.169L184.337,96.951z"/>
				</g>
			</g>
		</g>
	</g>
</g>
<g>
</g>
<g>
</g>
<g>
</g>
<g>
</g>
<g>
</g>
<g>
</g>
<g>
</g>
<g>
</g>
<g>
</g>
<g>
</g>
<g>
</g>
<g>
</g>
<g>
</g>
<g>
</g>
<g>
</g>
</svg>
