<?xml version="1.0" encoding="iso-8859-1"?>
<!-- Generator: Adobe Illustrator 19.0.0, SVG Export Plug-In . SVG Version: 6.00 Build 0)  -->
<svg version="1.1" id="Layer_1" xmlns="http://www.w3.org/2000/svg" xmlns:xlink="http://www.w3.org/1999/xlink" x="0px" y="0px"
	 viewBox="0 0 309.66 309.66" style="enable-background:new 0 0 309.66 309.66;" xml:space="preserve">
<g>
	<g>
		<g>
			<g id="XMLID_5_">
				<g>
					<g>
						<g>
							<path style="fill:#2D213F;" d="M263.719,2.946c1.586,1.878,2.298,4.338,1.878,6.766l-9.549,58.203
								c-0.486,2.946-2.493,5.309-5.115,6.377l12.269,156.222c0.129,1.489-0.194,3.043-0.874,4.402l-35.414,70.18
								c-1.392,2.752-4.241,4.532-7.348,4.564c-0.032,0-0.065,0-0.097,0c-3.075,0-5.891-1.683-7.348-4.402l-37.55-70.051
								c-0.809-1.489-1.133-3.172-0.939-4.856l16.8-156.19c-2.525-1.101-4.435-3.399-4.888-6.248L175.961,9.71
								c-0.388-2.428,0.291-4.888,1.878-6.766C179.425,1.068,181.756,0,184.216,0h73.158C259.834,0,262.133,1.068,263.719,2.946z
								 M240.736,58.203l6.83-41.499h-53.541l6.83,41.499H240.736z M246.368,229.477l-12.074-154.02H207.07l-16.574,154.118
								l28.745,53.671L246.368,229.477z"/>
						</g>
					</g>
					<g>
						<g>
							<polygon style="fill:#FEDE94;" points="247.566,16.703 240.736,58.203 200.855,58.203 194.024,16.703 							"/>
						</g>
					</g>
					<g>
						<g>
							<path style="fill:#FEDE94;" d="M234.294,75.457l12.074,154.021l-27.127,53.768l-28.745-53.671L207.07,75.457H234.294z
								 M237.563,196.686c3.464-2.363,4.37-7.122,2.007-10.618c-2.395-3.496-7.154-4.402-10.65-2.007
								c-3.464,2.363-4.37,7.122-2.007,10.618C229.309,198.175,234.067,199.081,237.563,196.686z M232.869,244.918
								c3.464-2.395,4.37-7.154,2.007-10.618c-2.395-3.496-7.154-4.402-10.618-2.039c-3.496,2.395-4.402,7.154-2.039,10.65
								C224.615,246.375,229.373,247.281,232.869,244.918z M233.582,134.598c0-4.241-3.399-7.64-7.64-7.64
								c-4.208,0-7.64,3.399-7.64,7.64c0,4.208,3.431,7.64,7.64,7.64C230.183,142.238,233.582,138.806,233.582,134.598z
								 M225.003,103.069c0-4.241-3.431-7.672-7.672-7.672c-4.208,0-7.64,3.431-7.64,7.672c0,4.208,3.431,7.64,7.64,7.64
								C221.572,110.708,225.003,107.277,225.003,103.069z M215.033,170.012c3.496-2.363,4.402-7.122,2.039-10.618
								c-2.395-3.496-7.154-4.402-10.65-2.007c-3.464,2.363-4.37,7.122-2.007,10.618
								C206.811,171.501,211.569,172.407,215.033,170.012z M208.624,215.72c3.496-2.395,4.37-7.122,2.007-10.618
								c-2.395-3.496-7.154-4.402-10.618-2.007c-3.496,2.363-4.402,7.122-2.007,10.618
								C200.369,217.209,205.128,218.083,208.624,215.72z"/>
						</g>
					</g>
					<g>
						<g>
							<path style="fill:#2D213F;" d="M239.57,186.068c2.363,3.496,1.457,8.255-2.007,10.618c-3.496,2.395-8.255,1.489-10.65-2.007
								c-2.363-3.496-1.457-8.255,2.007-10.618C232.416,181.665,237.175,182.572,239.57,186.068z"/>
						</g>
					</g>
					<g>
						<g>
							<path style="fill:#2D213F;" d="M234.876,234.301c2.363,3.464,1.457,8.222-2.007,10.618c-3.496,2.363-8.255,1.457-10.65-2.007
								c-2.363-3.496-1.457-8.255,2.039-10.65C227.722,229.898,232.481,230.805,234.876,234.301z"/>
						</g>
					</g>
					<g>
						<g>
							<path style="fill:#2D213F;" d="M225.942,126.959c4.241,0,7.64,3.399,7.64,7.64c0,4.208-3.399,7.64-7.64,7.64
								c-4.208,0-7.64-3.431-7.64-7.64C218.303,130.358,221.734,126.959,225.942,126.959z"/>
						</g>
					</g>
					<g>
						<g>
							<path style="fill:#2D213F;" d="M217.331,95.397c4.241,0,7.672,3.431,7.672,7.672c0,4.208-3.431,7.64-7.672,7.64
								c-4.208,0-7.64-3.431-7.64-7.64C209.692,98.828,213.123,95.397,217.331,95.397z"/>
						</g>
					</g>
					<g>
						<g>
							<path style="fill:#2D213F;" d="M217.072,159.394c2.363,3.496,1.457,8.255-2.039,10.618
								c-3.464,2.395-8.222,1.489-10.618-2.007c-2.363-3.496-1.457-8.255,2.007-10.618
								C209.918,154.992,214.677,155.898,217.072,159.394z"/>
						</g>
					</g>
					<g>
						<g>
							<path style="fill:#2D213F;" d="M210.631,205.102c2.363,3.496,1.489,8.222-2.007,10.618
								c-3.496,2.363-8.255,1.489-10.618-2.007c-2.395-3.496-1.489-8.255,2.007-10.618
								C203.477,200.7,208.235,201.606,210.631,205.102z"/>
						</g>
					</g>
					<g>
						<g>
							<path style="fill:#2D213F;" d="M134.106,2.946c1.586,1.878,2.266,4.338,1.878,6.766l-9.582,58.203
								c-0.486,2.946-2.46,5.309-5.115,6.377l2.752,34.831h0.777c4.597,0,8.352,3.755,8.352,8.352v20.782
								c0,3.852-2.654,7.057-6.215,8.028l6.604,84.229c0.129,1.489-0.162,3.043-0.874,4.402l-35.414,70.18
								c-1.392,2.752-4.208,4.532-7.316,4.564h-0.097c-3.075,0-5.924-1.683-7.381-4.402l-37.55-70.051
								c-0.777-1.489-1.101-3.172-0.939-4.856l16.833-156.19c-2.525-1.101-4.435-3.399-4.92-6.248L46.348,9.711
								c-0.421-2.428,0.291-4.888,1.878-6.766C49.78,1.068,52.11,0,54.571,0h73.158C130.189,0,132.52,1.068,134.106,2.946z
								 M111.09,58.203l6.83-41.499H64.379l6.83,41.499H111.09z M116.755,229.477l-6.507-82.902H84.934
								c-4.597,0-8.352-3.723-8.352-8.319v-20.782c0-0.291,0-0.583,0.032-0.842c0.453-4.208,4.014-7.51,8.319-7.51h22.368
								l-2.654-33.666h-27.19l-4.402,40.787L60.85,229.574l28.778,53.671L116.755,229.477z M116.464,129.904v-4.079H93.286v4.079
								H116.464z"/>
						</g>
					</g>
					<g>
						<g>
							<polygon style="fill:#F47C6D;" points="117.92,16.703 111.09,58.203 71.209,58.203 64.379,16.703 							"/>
						</g>
					</g>
					<g>
						<g>
							<path style="fill:#F47C6D;" d="M110.248,146.575l6.507,82.902l-27.127,53.768L60.85,229.574l12.204-113.33l3.561,0.388
								c-0.032,0.259-0.032,0.55-0.032,0.842v20.782c0,4.597,3.755,8.319,8.352,8.319L110.248,146.575L110.248,146.575z"/>
						</g>
					</g>
					<g>
						<g>
							<rect x="93.286" y="125.826" style="fill:#FEDE94;" width="23.178" height="4.079"/>
						</g>
					</g>
					<g>
						<g>
							<path style="fill:#F47C6D;" d="M104.648,75.457l2.654,33.666H84.934c-4.305,0-7.866,3.302-8.319,7.51l-3.561-0.388
								l4.402-40.787h27.192V75.457z"/>
						</g>
					</g>
				</g>
			</g>
		</g>
		<g>
			<path style="fill:#EF685E;" d="M100.123,146.575l4.186,56.008c1.052,14.091-1.421,28.221-7.196,41.118l-13.055,29.156
				l5.571,10.388l27.127-53.768l-6.507-82.902L100.123,146.575L100.123,146.575z"/>
		</g>
		<g>
			<polygon style="fill:#EF685E;" points="97.323,109.122 107.303,109.122 104.648,75.457 94.808,75.457 			"/>
		</g>
		<g>
			<path style="fill:#EF685E;" d="M97.727,58.203h13.363l6.83-41.499h-8.747C105.674,29.105,100.89,46.595,97.727,58.203z"/>
		</g>
		<g>
			<path style="fill:#F2CE75;" d="M246.368,229.477l-12.074-154.02h-9.572l3.389,51.848c3.166,0.932,5.471,3.813,5.471,7.293
				c0,3.108-1.861,5.781-4.538,6.973l2.7,41.299c2.92-0.583,6.034,0.583,7.827,3.198c2.363,3.496,1.457,8.255-2.007,10.618
				c-1.531,1.049-3.299,1.428-5.008,1.272c0.259,11.149-0.884,22.245-3.399,33.051c2.221,0.185,4.354,1.301,5.72,3.292
				c2.363,3.464,1.457,8.222-2.007,10.618c-2.438,1.648-5.474,1.674-7.911,0.385c-1.343,3.787-2.803,7.539-4.493,11.204
				l-7.196,15.59l5.972,11.149L246.368,229.477z"/>
		</g>
		<g>
			<polygon style="fill:#F2CE75;" points="247.287,18.39 246.103,16.703 239.9,16.703 228.117,58.203 240.736,58.203 			"/>
		</g>
	</g>
</g>
<g>
</g>
<g>
</g>
<g>
</g>
<g>
</g>
<g>
</g>
<g>
</g>
<g>
</g>
<g>
</g>
<g>
</g>
<g>
</g>
<g>
</g>
<g>
</g>
<g>
</g>
<g>
</g>
<g>
</g>
</svg>
