<?xml version="1.0" encoding="iso-8859-1"?>
<!-- Generator: Adobe Illustrator 19.0.0, SVG Export Plug-In . SVG Version: 6.00 Build 0)  -->
<svg version="1.1" id="Layer_1" xmlns="http://www.w3.org/2000/svg" xmlns:xlink="http://www.w3.org/1999/xlink" x="0px" y="0px"
	 viewBox="0 0 286.742 286.742" style="enable-background:new 0 0 286.742 286.742;" xml:space="preserve">
<g>
	<g>
		<g>
			<g>
				<g id="XMLID_40_">
					<g>
						<path style="fill:#EAEEEF;" d="M261.654,94.815c6.183,14.988,9.614,31.367,9.614,48.556s-3.431,33.569-9.614,48.524
							c-11.136,4.759-23.857,8.87-37.712,12.171c3.043-18.905,4.694-39.298,4.694-60.695s-1.651-41.823-4.694-60.728
							C237.829,85.946,250.486,90.057,261.654,94.815z"/>
						<path style="fill:#2D213F;" d="M143.371,0.001c79.05,0,143.371,64.321,143.371,143.371s-64.322,143.37-143.371,143.37
							S0,222.421,0,143.372S64.321,0.001,143.371,0.001z M271.268,143.372c0-17.189-3.431-33.569-9.614-48.556
							c-11.168-4.759-23.825-8.87-37.712-12.171c3.043,18.905,4.694,39.331,4.694,60.728s-1.651,41.791-4.694,60.695
							c13.855-3.302,26.576-7.413,37.712-12.171C267.837,176.939,271.268,160.561,271.268,143.372z M212.612,250.777
							c15.279-9.873,28.325-22.919,38.198-38.198c-9.355,3.14-19.358,5.924-30.008,8.222
							C218.504,231.421,215.752,241.454,212.612,250.777z M250.777,74.13c-9.873-15.279-22.886-28.325-38.165-38.198
							c3.172,9.355,5.892,19.39,8.19,30.008C231.42,68.239,241.454,70.958,250.777,74.13z M213.13,143.372
							c0-22.595-2.007-44.316-5.6-64.159c-19.876-3.593-41.564-5.6-64.159-5.6s-44.283,2.007-64.127,5.6
							c-3.593,19.876-5.633,41.564-5.633,64.159s2.007,44.283,5.6,64.127c19.876,3.593,41.564,5.633,64.159,5.633
							s44.316-2.039,64.159-5.633C211.123,187.655,213.13,165.967,213.13,143.372z M204.098,62.801
							c-3.302-13.855-7.413-26.577-12.171-37.712c-14.988-6.183-31.367-9.614-48.556-9.614s-33.569,3.431-48.524,9.614
							c-4.759,11.136-8.87,23.857-12.171,37.712c18.905-3.043,39.298-4.694,60.695-4.694S185.162,59.758,204.098,62.801z
							 M191.927,261.654c4.759-11.168,8.902-23.857,12.204-37.777c-18.937,3.043-39.331,4.759-60.76,4.759
							c-21.397,0-41.791-1.683-60.728-4.726c3.302,13.887,7.413,26.577,12.171,37.744c14.988,6.15,31.367,9.582,48.556,9.582
							S176.939,267.805,191.927,261.654z M74.129,250.811c-3.14-9.355-5.892-19.39-8.19-30.008
							c-10.618-2.298-20.653-5.05-29.975-8.19C45.837,227.892,58.85,240.905,74.129,250.811z M65.94,65.941
							c2.298-10.618,5.017-20.653,8.19-29.975C58.85,45.838,45.837,58.851,35.964,74.13C45.287,70.958,55.322,68.239,65.94,65.941z
							 M58.106,143.372c0-21.397,1.683-41.791,4.726-60.728c-13.887,3.302-26.609,7.413-37.744,12.171
							c-6.15,14.988-9.582,31.367-9.582,48.556c0,17.157,3.399,33.569,9.582,48.524c11.136,4.759,23.857,8.87,37.712,12.171
							C59.757,185.163,58.106,164.769,58.106,143.372z"/>
						<path style="fill:#EAEEEF;" d="M250.81,212.581c-9.873,15.279-22.919,28.325-38.198,38.198
							c3.14-9.323,5.892-19.358,8.19-29.975C231.452,218.505,241.454,215.721,250.81,212.581z"/>
						<path style="fill:#EAEEEF;" d="M212.612,35.933c15.279,9.873,28.292,22.919,38.165,38.198
							c-9.323-3.172-19.358-5.892-29.975-8.19C218.504,55.323,215.784,45.288,212.612,35.933z"/>
						<path style="fill:#EAEEEF;" d="M207.53,79.213c3.593,19.843,5.6,41.564,5.6,64.159s-2.007,44.283-5.6,64.127
							c-19.843,3.593-41.564,5.633-64.159,5.633s-44.283-2.039-64.159-5.633c-3.593-19.843-5.6-41.532-5.6-64.127
							s2.039-44.283,5.633-64.159c19.843-3.593,41.532-5.6,64.127-5.6S187.654,75.618,207.53,79.213z M201.541,143.728
							c0-7.219-5.017-12.107-8.708-15.7c-1.23-1.198-3.108-3.01-3.464-3.82c-0.356-0.874-0.324-3.658-0.324-5.503
							c0.032-5.05,0.097-11.945-4.823-16.865c-4.953-4.92-11.815-4.888-16.898-4.856c-1.845,0.032-4.629,0.065-5.503-0.324
							c-0.777-0.356-2.59-2.234-3.82-3.464c-3.561-3.658-8.481-8.708-15.668-8.708s-12.107,5.05-15.668,8.708
							c-1.23,1.23-3.043,3.108-3.82,3.464c-0.874,0.388-3.69,0.356-5.535,0.324c-5.017-0.032-11.912-0.065-16.865,4.856
							c-4.92,4.92-4.856,11.815-4.823,16.865c0,1.845,0.032,4.629-0.324,5.503c-0.356,0.809-2.234,2.622-3.464,3.82
							c-3.69,3.593-8.74,8.481-8.74,15.7c0,7.186,5.05,12.074,8.708,15.668c1.262,1.198,3.14,3.01,3.496,3.82
							c0.356,0.874,0.324,3.658,0.324,5.503c-0.032,5.05-0.097,11.945,4.823,16.865c4.953,4.92,11.848,4.888,16.865,4.856
							c1.878-0.032,4.661-0.032,5.535,0.324c0.777,0.356,2.59,2.234,3.82,3.464c3.561,3.69,8.481,8.708,15.668,8.708
							s12.107-5.017,15.668-8.708c1.23-1.23,3.043-3.108,3.82-3.464c0.874-0.356,3.69-0.356,5.503-0.324
							c5.082,0.032,11.945,0.065,16.898-4.856c4.92-4.92,4.856-11.815,4.823-16.865c0-1.845-0.032-4.629,0.324-5.503
							c0.356-0.809,2.234-2.622,3.464-3.82C196.524,155.801,201.541,150.913,201.541,143.728z"/>
						<path style="fill:#C5CBCF;" d="M197.139,130.294c4.043,3.778,9.543,8.918,9.543,16.509c0,7.555-5.5,12.696-9.543,16.477
							c-1.35,1.259-3.405,3.166-3.797,4.017c-0.392,0.919-0.356,3.846-0.356,5.788c0.036,5.309,0.107,12.56-5.286,17.736
							c-5.429,5.176-12.948,5.141-18.519,5.105c-1.988-0.032-5.073-0.032-6.031,0.34c-0.851,0.376-2.839,2.35-4.186,3.642
							c-3.904,3.881-9.294,9.158-17.173,9.158c-7.876,0-13.269-5.276-17.173-9.158c-1.347-1.295-3.334-3.266-4.186-3.642
							c-0.958-0.376-4.011-0.376-6.066-0.34c-5.5,0.036-13.055,0.068-18.484-5.105c-5.393-5.173-5.322-12.424-5.286-17.736
							c0-1.939,0.036-4.869-0.356-5.788c-0.388-0.851-2.447-2.758-3.833-4.017c-4.008-3.778-9.543-8.918-9.543-16.477
							c0-7.591,5.535-12.731,9.579-16.509c1.35-1.259,3.405-3.166,3.797-4.017c0.392-0.919,0.356-3.846,0.356-5.788
							c-0.036-5.309-0.107-12.56,5.286-17.736c5.429-5.176,12.984-5.14,18.484-5.105c2.023,0.032,5.108,0.068,6.066-0.34
							c0.851-0.376,2.839-2.35,4.186-3.642c3.904-3.846,9.297-9.158,17.173-9.158s13.269,5.309,17.173,9.158
							c1.35,1.295,3.334,3.269,4.186,3.642c0.958,0.408,4.008,0.376,6.031,0.34c5.571-0.036,13.091-0.068,18.519,5.105
							c5.393,5.173,5.322,12.424,5.286,17.736c0,1.939-0.036,4.869,0.356,5.788C193.733,127.128,195.789,129.035,197.139,130.294z
							 M188.269,146.803c-0.745-1.091-2.625-2.858-3.833-3.982c-2.875-2.69-6.138-5.752-7.911-9.838
							c-1.81-4.186-1.774-8.682-1.738-12.628c0-1.463,0-3.745-0.178-5.037c-1.347-0.204-3.726-0.204-5.286-0.172
							c-4.114,0.036-8.763,0.068-13.162-1.667c-4.257-1.703-7.416-4.833-10.252-7.627c-1.172-1.123-3.017-2.962-4.114-3.677
							c-1.101,0.715-2.946,2.554-4.114,3.677c-2.839,2.79-5.995,5.924-10.252,7.627c-4.399,1.735-9.048,1.703-13.162,1.667
							c-1.56-0.032-3.936-0.032-5.286,0.172c-0.178,1.295-0.178,3.574-0.178,5.037c0.036,3.949,0.071,8.442-1.738,12.628
							c-1.774,4.085-5.037,7.148-7.911,9.838c-1.207,1.123-3.088,2.894-3.833,3.982c0.745,1.055,2.625,2.826,3.833,3.949
							c2.875,2.69,6.138,5.752,7.911,9.838c1.81,4.221,1.774,8.682,1.738,12.631c0,1.463,0,3.745,0.178,5.037
							c1.35,0.204,3.726,0.172,5.286,0.172c0.531,0,1.065,0,1.632,0c3.69,0,7.698,0.172,11.531,1.667
							c4.257,1.703,7.416,4.833,10.216,7.627c1.172,1.156,3.053,2.962,4.15,3.677c1.101-0.715,2.946-2.518,4.114-3.677
							c2.839-2.79,5.995-5.924,10.252-7.591c4.399-1.771,9.048-1.735,13.162-1.703c1.56,0,3.94,0.032,5.286-0.172
							c0.178-1.295,0.178-3.574,0.178-5.037c-0.036-3.949-0.071-8.407,1.738-12.631c1.774-4.085,5.037-7.148,7.911-9.838
							C185.644,149.629,187.525,147.857,188.269,146.803z"/>
						<path style="fill:#2D213F;" d="M192.833,128.027c3.69,3.593,8.708,8.481,8.708,15.7c0,7.186-5.017,12.074-8.708,15.668
							c-1.23,1.198-3.108,3.01-3.464,3.82c-0.356,0.874-0.324,3.658-0.324,5.503c0.032,5.05,0.097,11.945-4.823,16.865
							c-4.953,4.92-11.815,4.888-16.898,4.856c-1.813-0.032-4.629-0.032-5.503,0.324c-0.777,0.356-2.59,2.234-3.82,3.464
							c-3.561,3.69-8.481,8.708-15.668,8.708s-12.107-5.017-15.668-8.708c-1.23-1.23-3.043-3.108-3.82-3.464
							c-0.874-0.356-3.658-0.356-5.535-0.324c-5.017,0.032-11.912,0.065-16.865-4.856c-4.92-4.92-4.856-11.815-4.823-16.865
							c0-1.845,0.032-4.629-0.324-5.503c-0.356-0.809-2.234-2.622-3.496-3.82c-3.658-3.593-8.708-8.481-8.708-15.668
							c0-7.219,5.05-12.107,8.74-15.7c1.23-1.198,3.108-3.01,3.464-3.82c0.356-0.874,0.324-3.658,0.324-5.503
							c-0.032-5.05-0.097-11.945,4.823-16.865c4.953-4.92,11.848-4.888,16.865-4.856c1.845,0.032,4.661,0.065,5.535-0.324
							c0.777-0.356,2.59-2.234,3.82-3.464c3.561-3.658,8.481-8.708,15.668-8.708s12.107,5.05,15.668,8.708
							c1.23,1.23,3.043,3.108,3.82,3.464c0.874,0.388,3.658,0.356,5.503,0.324c5.082-0.032,11.945-0.065,16.898,4.856
							c4.92,4.92,4.856,11.815,4.823,16.865c0,1.845-0.032,4.629,0.324,5.503C189.726,125.017,191.603,126.83,192.833,128.027z
							 M184.741,143.728c-0.68-1.036-2.395-2.719-3.496-3.787c-2.622-2.557-5.6-5.471-7.219-9.355
							c-1.651-3.982-1.619-8.255-1.586-12.01c0-1.392,0-3.561-0.162-4.791c-1.23-0.194-3.399-0.194-4.823-0.162
							c-3.755,0.032-7.996,0.065-12.01-1.586c-3.885-1.619-6.766-4.597-9.355-7.251c-1.068-1.068-2.752-2.816-3.755-3.496
							c-1.004,0.68-2.687,2.428-3.755,3.496c-2.59,2.654-5.471,5.633-9.355,7.251c-4.014,1.651-8.255,1.619-12.01,1.586
							c-1.424-0.032-3.593-0.032-4.823,0.162c-0.162,1.23-0.162,3.399-0.162,4.791c0.032,3.755,0.065,8.028-1.586,12.01
							c-1.619,3.885-4.597,6.798-7.219,9.355c-1.101,1.068-2.816,2.752-3.496,3.787c0.68,1.004,2.395,2.687,3.496,3.755
							c2.622,2.557,5.6,5.471,7.219,9.355c1.651,4.014,1.619,8.255,1.586,12.01c0,1.392,0,3.561,0.162,4.791
							c1.23,0.194,3.399,0.162,4.823,0.162c0.486,0,0.971,0,1.489,0c3.367,0,7.024,0.162,10.521,1.586
							c3.885,1.619,6.766,4.597,9.323,7.251c1.068,1.101,2.784,2.816,3.787,3.496c1.003-0.68,2.687-2.395,3.755-3.496
							c2.59-2.654,5.471-5.633,9.355-7.219c4.014-1.683,8.255-1.651,12.01-1.619c1.424,0,3.593,0.032,4.823-0.162
							c0.162-1.23,0.162-3.399,0.162-4.791c-0.032-3.755-0.065-7.996,1.586-12.01c1.619-3.885,4.597-6.798,7.219-9.355
							C182.345,146.415,184.061,144.73,184.741,143.728z"/>
						<path style="fill:#EAEEEF;" d="M191.927,25.088c4.759,11.136,8.87,23.857,12.171,37.712
							c-18.937-3.043-39.331-4.694-60.728-4.694s-41.79,1.652-60.695,4.695c3.302-13.855,7.413-26.577,12.171-37.712
							c14.955-6.183,31.335-9.614,48.524-9.614S176.939,18.906,191.927,25.088z"/>
						<path style="fill:#505967;" d="M181.245,139.939c1.101,1.068,2.816,2.752,3.496,3.787c-0.68,1.003-2.395,2.687-3.496,3.755
							c-2.622,2.557-5.6,5.471-7.219,9.355c-1.651,4.014-1.619,8.255-1.586,12.01c0,1.392,0,3.561-0.162,4.791
							c-1.23,0.194-3.399,0.162-4.823,0.162c-3.755-0.032-7.996-0.065-12.01,1.619c-3.885,1.586-6.766,4.564-9.355,7.219
							c-1.068,1.101-2.752,2.816-3.755,3.496c-1.004-0.68-2.719-2.395-3.787-3.496c-2.557-2.654-5.438-5.633-9.323-7.251
							c-3.496-1.424-7.154-1.586-10.521-1.586c-0.518,0-1.004,0-1.489,0c-1.424,0-3.593,0.032-4.823-0.162
							c-0.162-1.23-0.162-3.399-0.162-4.791c0.032-3.755,0.065-7.996-1.586-12.01c-1.619-3.885-4.597-6.798-7.219-9.355
							c-1.101-1.068-2.816-2.752-3.496-3.755c0.68-1.036,2.395-2.719,3.496-3.787c2.622-2.557,5.6-5.471,7.219-9.355
							c1.651-3.982,1.619-8.255,1.586-12.01c0-1.392,0-3.561,0.162-4.791c1.23-0.194,3.399-0.194,4.823-0.162
							c3.755,0.032,7.996,0.065,12.01-1.586c3.885-1.619,6.766-4.597,9.355-7.251c1.068-1.068,2.752-2.816,3.755-3.496
							c1.003,0.68,2.687,2.428,3.755,3.496c2.59,2.654,5.471,5.633,9.355,7.251c4.014,1.651,8.255,1.619,12.01,1.586
							c1.424-0.032,3.593-0.032,4.823,0.162c0.162,1.23,0.162,3.399,0.162,4.791c-0.032,3.755-0.065,8.028,1.586,12.01
							C175.644,134.469,178.623,137.383,181.245,139.939z M165.966,143.728c0-12.625-10.262-22.886-22.854-22.886
							c-12.625,0-22.886,10.262-22.886,22.886c0,12.592,10.262,22.854,22.886,22.854
							C155.704,166.581,165.966,156.32,165.966,143.728z"/>
						<path style="fill:#2D213F;" d="M143.112,120.842c12.592,0,22.854,10.262,22.854,22.886c0,12.592-10.262,22.854-22.854,22.854
							c-12.625,0-22.886-10.262-22.886-22.854C120.226,131.103,130.487,120.842,143.112,120.842z M149.359,143.728
							c0-3.464-2.816-6.28-6.248-6.28c-3.464,0-6.248,2.816-6.248,6.28c0,3.431,2.784,6.248,6.248,6.248
							C146.543,149.975,149.359,147.159,149.359,143.728z"/>
						<path style="fill:#EAEEEF;" d="M65.94,220.803c2.298,10.618,5.05,20.653,8.19,30.008
							c-15.279-9.905-28.292-22.919-38.165-38.198C45.287,215.753,55.322,218.505,65.94,220.803z"/>
						<path style="fill:#EAEEEF;" d="M74.129,35.965c-3.172,9.323-5.892,19.358-8.19,29.975c-10.618,2.298-20.653,5.017-29.975,8.19
							C45.837,58.851,58.85,45.838,74.129,35.965z"/>
						<path style="fill:#EAEEEF;" d="M62.832,82.644c-3.043,18.937-4.726,39.331-4.726,60.728s1.651,41.791,4.694,60.695
							c-13.855-3.302-26.577-7.413-37.712-12.171c-6.183-14.955-9.582-31.367-9.582-48.524c0-17.189,3.431-33.569,9.582-48.556
							C36.223,90.057,48.945,85.946,62.832,82.644z"/>
					</g>
				</g>
			</g>
		</g>
		<path style="fill:#C5CBCF;" d="M84.407,230.754c2.968,11.213,6.448,21.611,10.407,30.901c14.988,6.15,31.367,9.582,48.556,9.582
			s33.569-3.431,48.556-9.582c4.195-9.844,7.873-20.931,10.958-32.941C155.558,240.497,115.881,238.364,84.407,230.754z"/>
		<path style="fill:#C5CBCF;" d="M220.09,223.9c-2.153,9.465-4.645,18.474-7.478,26.878c15.188-9.815,28.163-22.77,38.013-37.929
			C240.143,217.18,229.963,220.844,220.09,223.9z"/>
		<path style="fill:#C5CBCF;" d="M74.129,250.811c-2.641-7.866-4.988-16.24-7.041-25.013c-11.741-3.907-22.048-8.475-30.875-13.104
			c-0.081-0.026-0.168-0.052-0.249-0.081C45.837,227.892,58.85,240.905,74.129,250.811z"/>
	</g>
</g>
<g>
</g>
<g>
</g>
<g>
</g>
<g>
</g>
<g>
</g>
<g>
</g>
<g>
</g>
<g>
</g>
<g>
</g>
<g>
</g>
<g>
</g>
<g>
</g>
<g>
</g>
<g>
</g>
<g>
</g>
</svg>
